<?xml version="1.0" encoding="UTF-8" standalone="no"?>
<svg
   version="1.1"
   id="Layer_1"
   x="0px"
   y="0px"
   viewBox="0 0 122.88 116.68"
   style="enable-background:new 0 0 122.88 116.68"
   xml:space="preserve"
   sodipodi:docname="chart-arrow-up-icon.svg"
   inkscape:version="1.4 (86a8ad7, 2024-10-11)"
   xmlns:inkscape="http://www.inkscape.org/namespaces/inkscape"
   xmlns:sodipodi="http://sodipodi.sourceforge.net/DTD/sodipodi-0.dtd"
   xmlns="http://www.w3.org/2000/svg"
   xmlns:svg="http://www.w3.org/2000/svg"><defs
     id="defs1" /><sodipodi:namedview
     id="namedview1"
     pagecolor="#ffffff"
     bordercolor="#000000"
     borderopacity="0.25"
     inkscape:showpageshadow="2"
     inkscape:pageopacity="0.0"
     inkscape:pagecheckerboard="0"
     inkscape:deskcolor="#d1d1d1"
     inkscape:zoom="6.6249571"
     inkscape:cx="61.509832"
     inkscape:cy="58.34"
     inkscape:window-width="1920"
     inkscape:window-height="991"
     inkscape:window-x="-9"
     inkscape:window-y="-9"
     inkscape:window-maximized="1"
     inkscape:current-layer="Layer_1" /><g
     id="g1"
     style="fill:#0c4bbd;fill-opacity:0.9201774"><path
       d="M69.53,91.55l13.23,13.23c3.2,0.09,5.77,2.72,5.77,5.95c0,3.29-2.66,5.95-5.95,5.95c-3.29,0-5.95-2.67-5.95-5.95 c0-0.36,0.03-0.72,0.09-1.07L65.21,98.16v8.46l-8.24,0v-8.23l-11.69,11.7c0.02,0.21,0.03,0.43,0.03,0.65c0,0,0,0,0,0 c0,3.29-2.66,5.95-5.96,5.95c-3.29,0-5.95-2.67-5.95-5.95c0-3.29,2.67-5.95,5.95-5.95c0.1,0,0.2,0,0.29,0.01l13.23-13.23L0,91.55 V15.71c0-0.05,0-0.09,0-0.14V7.52c0-0.87,0.72-1.57,1.61-1.57h55.36V0h8.24v5.95h56.06c0.89,0,1.61,0.71,1.61,1.57v8.05 c0,0.03,0,0.05,0,0.08v75.89H69.53L69.53,91.55z M26.89,62.71l23.26-22.74c5.76,5.76,11.46,11.46,17.28,17.21l15.41-15.6 l-7.15-7.15l20.12-0.18v20.29l-6.87-6.87c-7.16,7.25-14.29,14.48-21.47,21.67L50.03,52.12L32.99,68.81L26.89,62.71L26.89,62.71 L26.89,62.71z M113.79,21.73H8.92v60.64h104.87V21.73L113.79,21.73z"
       id="path1"
       style="fill:#0c4bbd;fill-opacity:0.9201774" /></g></svg>
