<?xml version="1.0" encoding="UTF-8" standalone="no"?>
<svg
   shape-rendering="geometricPrecision"
   text-rendering="geometricPrecision"
   image-rendering="optimizeQuality"
   fill-rule="evenodd"
   clip-rule="evenodd"
   viewBox="0 0 512 446.4"
   version="1.1"
   id="svg7"
   sodipodi:docname="cloud-hosting-color-icon.svg"
   inkscape:version="1.4 (86a8ad7, 2024-10-11)"
   xmlns:inkscape="http://www.inkscape.org/namespaces/inkscape"
   xmlns:sodipodi="http://sodipodi.sourceforge.net/DTD/sodipodi-0.dtd"
   xmlns="http://www.w3.org/2000/svg"
   xmlns:svg="http://www.w3.org/2000/svg">
  <defs
     id="defs7" />
  <sodipodi:namedview
     id="namedview7"
     pagecolor="#ffffff"
     bordercolor="#000000"
     borderopacity="0.25"
     inkscape:showpageshadow="2"
     inkscape:pageopacity="0.0"
     inkscape:pagecheckerboard="0"
     inkscape:deskcolor="#d1d1d1"
     inkscape:zoom="1.7316308"
     inkscape:cx="256.11694"
     inkscape:cy="223.2"
     inkscape:window-width="1920"
     inkscape:window-height="991"
     inkscape:window-x="-9"
     inkscape:window-y="-9"
     inkscape:window-maximized="1"
     inkscape:current-layer="svg7" />
  <path
     fill="#257FC4"
     fill-rule="nonzero"
     d="M382.38 85.757c45.934-7.118 83.102 13.017 105.787 44.628 9.781 13.629 16.802 29.393 20.591 45.983 3.774 16.529 4.342 33.963 1.234 50.999-8.101 44.403-40.638 85.661-105.637 100.751l-1.798.418H96.952l-1.408-.18c-38.042-4.842-66.096-26.281-81.667-53.961C5.284 259.117.531 241.865.042 224.409c-.491-17.505 3.344-35.197 11.929-51.301 13.88-26.042 39.912-47.678 79.762-57.126 9.119-36.299 28.621-64.275 53.655-83.701C168.787 14.122 196.993 3.562 226.017.757c28.881-2.792 58.639 2.133 85.305 14.926 29.162 13.992 54.565 37.29 71.058 70.074z"
     id="path1"
     style="fill:#2d45cf;fill-opacity:0.60310423" />
  <path
     fill="#A3EDFD"
     d="M388.361 100.35c116.967-13.826 164.642 177.624 12.596 212.923H97.451c-101.427-12.911-120.075-162.053 7.01-184.347C130.284-6.986 309.245-23.004 368.126 91.35c-7.246 2.663-14.265 6.022-20.97 9.994-15.086 8.938-28.609 21.001-39.519 35.216a7.108 7.108 0 0011.296 8.627c9.793-12.758 21.926-23.583 35.458-31.6 10.632-6.299 22.11-10.855 33.97-13.237z"
     id="path2"
     style="fill:#a7bef8;fill-opacity:1" />
  <path
     fill="#4D4D4D"
     fill-rule="nonzero"
     d="M270.268 375.299v16.581a29.218 29.218 0 016.296 4.785 29.217 29.217 0 015.385 7.415h83.456c3.236 0 5.861 2.734 5.861 6.106v14.161c0 3.371-2.625 6.105-5.861 6.105h-83.456a29.212 29.212 0 01-5.385 7.414c-5.273 5.273-12.556 8.534-20.601 8.534-8.044 0-15.327-3.261-20.6-8.534a29.24 29.24 0 01-5.386-7.414h-83.456c-3.236 0-5.861-2.734-5.861-6.105v-14.161c0-3.372 2.625-6.106 5.861-6.106h83.456a29.245 29.245 0 0111.681-12.199v-16.582H134.512c-13.408 0-24.35-10.943-24.35-24.35v-57.19c0-9.087 5.052-17.059 12.487-21.241-7.438-4.176-12.487-12.143-12.487-21.249v-57.191c0-13.37 10.979-24.35 24.35-24.35h242.903c13.39 0 24.35 10.968 24.35 24.35v57.191c0 9.088-5.058 17.056-12.49 21.238 7.441 4.176 12.49 12.144 12.49 21.252v57.19c0 13.37-10.979 24.35-24.35 24.35H270.268z"
     id="path3" />
  <path
     fill="#fff"
     d="M306.536 71.143c.737-38.884-93.205-62.482-132.056-1.22 42.08-24.345 92.574-24.247 132.056 1.22z"
     id="path4" />
  <path
     fill="#FDCD56"
     d="M134.512 177.869h242.903c8.916 0 16.21 7.294 16.21 16.209v57.191c0 8.915-7.295 16.209-16.21 16.209H134.512c-8.914 0-16.21-7.293-16.21-16.209v-57.191c0-8.917 7.294-16.209 16.21-16.209zM134.512 367.158h242.903c8.916 0 16.21-7.293 16.21-16.209v-57.19c0-8.917-7.295-16.21-16.21-16.21H134.512c-8.914 0-16.21 7.294-16.21 16.21v57.19c0 8.914 7.294 16.209 16.21 16.209z"
     id="path5"
     style="fill:#78affc;fill-opacity:1" />
  <path
     fill="#C49335"
     d="M162.843 332.708c5.719 0 10.354-4.636 10.354-10.355s-4.635-10.354-10.354-10.354c-5.719 0-10.354 4.635-10.354 10.354 0 5.719 4.635 10.355 10.354 10.355zM294.775 214.26H354.5c3.034 0 5.516 2.483 5.516 5.517v5.793c0 3.036-2.482 5.517-5.516 5.517h-59.725c-3.034 0-5.516-2.481-5.516-5.517v-5.793c0-3.034 2.482-5.517 5.516-5.517zm-56.857-1.941c5.719 0 10.354 4.635 10.354 10.355 0 5.719-4.635 10.354-10.354 10.354-5.72 0-10.355-4.635-10.355-10.354 0-5.72 4.635-10.355 10.355-10.355zm-37.249 0c5.719 0 10.354 4.635 10.354 10.355 0 5.719-4.635 10.354-10.354 10.354-5.719 0-10.354-4.635-10.354-10.354 0-5.72 4.635-10.355 10.354-10.355zm-37.249 0c5.719 0 10.355 4.635 10.355 10.355 0 5.719-4.636 10.354-10.355 10.354-5.718 0-10.354-4.635-10.354-10.354 0-5.72 4.636-10.355 10.354-10.355zm130.778 118.448h59.724c3.034 0 5.517-2.483 5.517-5.517v-5.793c0-3.036-2.483-5.517-5.517-5.517h-59.724c-3.034 0-5.516 2.481-5.516 5.517v5.793c0 3.034 2.482 5.517 5.516 5.517zm-56.858 1.941c5.719 0 10.355-4.636 10.355-10.355s-4.636-10.354-10.355-10.354-10.355 4.635-10.355 10.354c0 5.719 4.636 10.355 10.355 10.355zm-37.248 0c5.718 0 10.354-4.636 10.354-10.355s-4.636-10.354-10.354-10.354c-5.719 0-10.355 4.635-10.355 10.354 0 5.719 4.636 10.355 10.355 10.355z"
     id="path6"
     style="fill:#ffffff;fill-opacity:1" />
  <path
     fill="#B3B3B3"
     d="M146.521 410.186h81.175a29.184 29.184 0 00-.868 7.079c0 2.442.302 4.815.868 7.082h-81.175v-14.161zm117.642-37.023v16.139a29.126 29.126 0 00-8.2-1.172c-2.847 0-5.599.41-8.2 1.172v-16.139h16.4zm-8.2 21.073c12.719 0 23.03 10.311 23.03 23.029 0 12.719-10.311 23.03-23.03 23.03-12.719 0-23.029-10.311-23.029-23.03 0-12.718 10.31-23.029 23.029-23.029zm28.268 15.95h81.174v14.161h-81.174c.566-2.267.867-4.64.867-7.082 0-2.441-.301-4.813-.867-7.079z"
     id="path7" />
</svg>
