<?xml version="1.0" encoding="UTF-8" standalone="no"?>
<svg
   shape-rendering="geometricPrecision"
   text-rendering="geometricPrecision"
   image-rendering="optimizeQuality"
   fill-rule="evenodd"
   clip-rule="evenodd"
   viewBox="0 0 512 406.518"
   version="1.1"
   id="svg2"
   sodipodi:docname="desktop-app-analytics-icon.svg"
   inkscape:version="1.4 (86a8ad7, 2024-10-11)"
   xmlns:inkscape="http://www.inkscape.org/namespaces/inkscape"
   xmlns:sodipodi="http://sodipodi.sourceforge.net/DTD/sodipodi-0.dtd"
   xmlns="http://www.w3.org/2000/svg"
   xmlns:svg="http://www.w3.org/2000/svg">
  <defs
     id="defs2">
    <inkscape:path-effect
       effect="fillet_chamfer"
       id="path-effect28"
       is_visible="true"
       lpeversion="1"
       nodesatellites_param="F,0,0,1,0,31.867314,0,1 @ F,0,0,1,0,16.471407,0,1 @ F,0,0,1,0,0,0,1 @ F,0,0,1,0,0,0,1 @ F,0,0,1,0,0,0,1 @ F,0,0,1,0,0,0,1 @ F,0,0,1,0,0,0,1 @ F,0,0,1,0,0,0,1 @ F,0,0,1,0,0,0,1 @ F,0,0,1,0,0,0,1 @ F,0,0,1,0,28.711935,0,1 @ F,0,0,1,0,32.101808,0,1"
       radius="0"
       unit="px"
       method="auto"
       mode="F"
       chamfer_steps="1"
       flexible="false"
       use_knot_distance="true"
       apply_no_radius="true"
       apply_with_radius="true"
       only_selected="false"
       hide_knots="false" />
    <inkscape:path-effect
       effect="fillet_chamfer"
       id="path-effect27"
       is_visible="true"
       lpeversion="1"
       nodesatellites_param="F,0,0,1,0,18.538503,0,1 @ F,0,1,1,0,18.538503,0,1 @ F,0,0,1,0,0,0,1 @ F,0,0,1,0,0,0,1 @ F,0,0,1,0,0,0,1 @ F,0,0,1,0,0,0,1 @ F,0,0,1,0,0,0,1 @ F,0,0,1,0,0,0,1 @ F,0,0,1,0,0,0,1 @ F,0,0,1,0,0,0,1 @ F,0,0,1,0,0,0,1 @ F,0,0,1,0,0,0,1"
       radius="0"
       unit="px"
       method="auto"
       mode="F"
       chamfer_steps="1"
       flexible="false"
       use_knot_distance="true"
       apply_no_radius="true"
       apply_with_radius="true"
       only_selected="false"
       hide_knots="false" />
  </defs>
  <sodipodi:namedview
     id="namedview2"
     pagecolor="#ffffff"
     bordercolor="#000000"
     borderopacity="0.25"
     inkscape:showpageshadow="2"
     inkscape:pageopacity="0.0"
     inkscape:pagecheckerboard="0"
     inkscape:deskcolor="#d1d1d1"
     inkscape:zoom="1.344574"
     inkscape:cx="336.53782"
     inkscape:cy="194.48539"
     inkscape:window-width="1920"
     inkscape:window-height="991"
     inkscape:window-x="-9"
     inkscape:window-y="-9"
     inkscape:window-maximized="1"
     inkscape:current-layer="svg2" />
  <path
     d="M 512,31.867314 V 323.23759 A 16.471407,16.471407 135 0 1 495.52859,339.709 l -158.76059,0 v 34.199 h 51.215 v 32.61 H 122.929 v -32.61 h 54.847 V 339.709 H 28.711935 A 28.711935,28.711935 45 0 1 0,310.99707 V 32.101808 A 32.101808,32.101808 135 0 1 32.101808,0 H 480.13269 A 31.867314,31.867314 45 0 1 512,31.867314 Z"
     id="path15"
     inkscape:path-effect="#path-effect28"
     inkscape:original-d="M 512,0 V 339.709 H 336.768 v 34.199 h 51.215 v 32.61 H 122.929 v -32.61 h 54.847 V 339.709 H 0 V 0 Z"
     style="fill:#7790ff;fill-opacity:1" />
  <path
     d="M 15.281,296.178 H 496.65 V 15.276 H 15.281 Z"
     id="path16"
     style="fill:#ececec" />
  <path
     d="m 208.068,77.263 c 13.33,15.646 21.378,35.932 21.378,58.096 h -11.642 c 0,-18.491 -6.437,-35.482 -17.19,-48.848 z"
     id="path27"
     style="fill:#b3b3b3" />
  <path
     d="m 285.623,91.12 h 170.356 v 11.532 H 285.623 Z"
     id="path26"
     style="fill:#4d4d4d" />
  <path
     d="m 285.623,123.49 h 170.356 v 11.532 H 285.623 Z"
     id="path25"
     style="fill:#4d4d4d" />
  <path
     d="m 300.518,187.334 h 20.636 a 2.17,2.17 0 0 1 2.161,2.162 v 59.943 h 15.02 v -37.057 c 0,-1.19 0.971,-2.163 2.161,-2.163 h 20.636 c 1.19,0 2.163,0.979 2.163,2.163 v 37.057 h 15.018 v -84.625 c 0,-1.19 0.973,-2.16 2.161,-2.16 h 20.637 c 1.192,0 2.165,0.981 2.165,2.16 v 84.625 h 15.02 v -50.716 c 0,-1.19 0.972,-2.162 2.162,-2.162 h 20.636 a 2.17,2.17 0 0 1 2.163,2.162 v 50.716 h 12.728 v 8.302 H 285.624 v -8.302 h 12.731 v -59.943 c 0,-1.189 0.973,-2.162 2.163,-2.162 z"
     id="path24"
     style="fill:#1a1a1a" />
  <path
     d="m 56.011,183.087 h 11.344 v 11.532 H 56.011 Z"
     id="path23"
     style="fill:#1a1a1a" />
  <path
     d="m 76.597,183.434 h 145.332 v 10.839 H 76.597 Z"
     id="path22"
     style="fill:#1a1a1a" />
  <path
     d="m 56.011,215.457 h 11.344 v 11.532 H 56.011 Z"
     id="path21"
     style="fill:#1a1a1a" />
  <path
     d="m 76.597,215.805 h 145.332 v 10.839 H 76.597 Z"
     id="path20"
     style="fill:#1a1a1a" />
  <path
     d="m 56.011,247.824 h 11.344 v 11.532 H 56.011 Z"
     id="path19"
     style="fill:#1a1a1a" />
  <path
     d="M 76.597,248.171 H 221.929 V 259.01 H 76.597 Z"
     id="path18"
     style="fill:#1a1a1a" />
  <path
     d="M 285.623,58.734 H 428.299 V 70.303 H 285.623 Z"
     id="path17"
     style="fill:#4d4d4d" />
  <path
     d="m 50.187,135.359 c 0,-24.751 10.033,-47.159 26.252,-63.377 16.219,-16.22 38.626,-26.252 63.378,-26.252 17.992,0 34.747,5.303 48.787,14.431 -2.865,2.288 -6.142,4.886 -9.675,7.715 A 77.54,77.54 0 0 0 144.703,57.524 v 10.341 h -14.137 v -9.949 c -15.484,1.83 -29.578,8.196 -40.916,17.732 l 7.759,7.76 -9.994,9.995 -7.719,-7.72 c -11.159,13.49 -17.867,30.8 -17.867,49.676 z"
     id="path1"
     style="fill:#333333" />
  <path
     fill="#EF1C25"
     d="M203.602 58.91l-71.725 64.146c-13.622 11.254 4.597 30.196 16.888 14.071l59.647-74.002-4.81-4.215z"
     id="path2"
     style="fill:#00ff00" />
</svg>
