<?xml version="1.0" encoding="UTF-8" standalone="no"?>
<svg
   id="Layer_1"
   data-name="Layer 1"
   viewBox="0 0 122.88 77.39"
   version="1.1"
   sodipodi:docname="graphic-designing-icon.svg"
   inkscape:version="1.4 (86a8ad7, 2024-10-11)"
   xmlns:inkscape="http://www.inkscape.org/namespaces/inkscape"
   xmlns:sodipodi="http://sodipodi.sourceforge.net/DTD/sodipodi-0.dtd"
   xmlns="http://www.w3.org/2000/svg"
   xmlns:svg="http://www.w3.org/2000/svg">
  <sodipodi:namedview
     id="namedview1"
     pagecolor="#ffffff"
     bordercolor="#000000"
     borderopacity="0.25"
     inkscape:showpageshadow="2"
     inkscape:pageopacity="0.0"
     inkscape:pagecheckerboard="0"
     inkscape:deskcolor="#d1d1d1"
     inkscape:zoom="2.4970927"
     inkscape:cx="220.05591"
     inkscape:cy="99.115264"
     inkscape:window-width="1920"
     inkscape:window-height="991"
     inkscape:window-x="-9"
     inkscape:window-y="-9"
     inkscape:window-maximized="1"
     inkscape:current-layer="Layer_1" />
  <defs
     id="defs1">
    <style
       id="style1">.cls-1{fill-rule:evenodd;}</style>
  </defs>
  <title
     id="title1">graphic-designing</title>
  <path
     d="M 69.82,58.701979 53.88,57 v -3.18 h 15.94 z"
     id="path21"
     style="fill:#505099;fill-opacity:1" />
  <path
     d="M 74.66,40.74 70.21,52.12 53.8,51.91 49.26,40.74 c 3.9,-7 7.87,-15.49 9.91,-23 l 2.16,-1.76 -0.08,22.12 c -2.277276,0.826438 -1.610458,4.203971 0.805284,4.110338 C 64.471027,42.116704 64.874413,38.697691 62.54,38.05 L 62.6,16.14 65.08,18 c 1.81,7.51 5.74,16 9.58,22.71 z"
     id="path20"
     style="fill:#373769;fill-opacity:1"
     sodipodi:nodetypes="cccccccsccccc" />
  <path
     d="m 57.71,0 h 8.58 c 0.635127,0 1.15,0.51487254 1.15,1.15 V 4 H 81 c 0.228203,-0.6596874 0.604494,-1.2583317 1.1,-1.75 v 0 c 1.814078,-1.82409861 4.765922,-1.82409861 6.58,0 v 0 c 1.824099,1.8140777 1.824099,4.7659223 0,6.58 v 0 c -1.814078,1.824099 -4.765922,1.824099 -6.58,0 v 0 C 81.595176,8.3144876 81.218405,7.687677 81,7 h -7 c 2.260883,1.3065776 4.305226,2.9562206 6.06,4.89 3.501152,3.867559 5.813433,8.662243 6.66,13.81 h 1.88 c 0.772259,-0.01694 1.405824,0.607578 1.4,1.38 v 6.29 c 0.0056,0.760532 -0.609447,1.38002 -1.37,1.38 H 82.38 C 81.617847,34.75 81,34.132153 81,33.37 v -6.29 c 0,-0.762153 0.617847,-1.38 1.38,-1.38 h 1.44 C 82.995578,21.281569 80.95989,17.179035 77.94,13.85 75.124894,10.740623 71.483061,8.4965597 67.44,7.38 v 2.45 c 0.01118,0.642923 -0.506979,1.170097 -1.15,1.17 H 57.71 C 57.072561,11.0056 56.554383,10.487439 56.56,9.85 V 7.38 c -4.149424,1.1510795 -7.869815,3.494578 -10.7,6.74 -2.879938,3.288655 -4.830339,7.286114 -5.65,11.58 h 1.41 c 0.762153,0 1.38,0.617847 1.38,1.38 v 6.29 c 0,0.762153 -0.617847,1.38 -1.38,1.38 H 35.4 C 34.630049,34.76116 33.999919,34.140032 34,33.37 v -6.29 c -8.1e-5,-0.770032 0.630049,-1.39116 1.4,-1.38 h 1.91 C 38.163655,20.702852 40.385949,16.040188 43.73,12.23 45.520921,10.156525 47.63887,8.3898789 50,7 h -8.09 c -0.228279,0.6567297 -0.604663,1.2521005 -1.1,1.74 v 0 c -0.869943,0.877349 -2.054467,1.3706 -3.29,1.37 -1.237461,-0.0044 -2.423248,-0.4967098 -3.3,-1.37 v 0 c -1.824099,-1.8140777 -1.824099,-4.7659223 0,-6.58 v 0 c 1.814078,-1.82409861 4.765922,-1.82409861 6.58,0 v 0 C 41.31099,2.6763887 41.691508,3.3071586 41.91,4 H 56.56 V 1.15 C 56.554383,0.51256059 57.072561,-0.00561653 57.71,0 Z"
     id="path19"
     style="fill:#6262ac;fill-opacity:1" />
  <path
     d="m 2.52,71.63 h 12.59 c -0.954637,-0.25247 -1.62224,-1.112573 -1.63,-2.1 V 18 c 0.0055,-1.200074 0.979914,-2.170013 2.18,-2.17 h 13.8 l -0.89,3.58 h -11.2 v 49.5 h 87.86 V 19.4 h -11 l -1,-3.58 h 13.46 c 1.18671,0.02187 2.13567,0.993102 2.13,2.18 v 51.52 c -7.9e-4,0.98983 -0.67131,1.853683 -1.63,2.1 h 13.17 c 3.36,0 3.36,5.77 0,5.77 H 2.52 c -3.36,0 -3.36,-5.76 0,-5.76 z"
     id="path1"
     style="stroke:none;stroke-opacity:1;fill:#6262ac;fill-opacity:1" />
  <path
     d="M 57.87,72.58 H 65 c 1.61,0 1.61,3.13 0,3.13 h -7.13 c -1.61,0 -1.62,-3.13 0,-3.13 z"
     id="path22"
     style="fill:#54549e;fill-opacity:1" />
</svg>
