<?xml version="1.0" encoding="UTF-8" standalone="no"?>
<svg
   version="1.1"
   id="Layer_1"
   x="0px"
   y="0px"
   viewBox="0 0 119.36 122.88"
   style="enable-background:new 0 0 119.36 122.88"
   xml:space="preserve"
   sodipodi:docname="rpa-robotic-process-automation-icon.svg"
   inkscape:version="1.4 (86a8ad7, 2024-10-11)"
   xmlns:inkscape="http://www.inkscape.org/namespaces/inkscape"
   xmlns:sodipodi="http://sodipodi.sourceforge.net/DTD/sodipodi-0.dtd"
   xmlns="http://www.w3.org/2000/svg"
   xmlns:svg="http://www.w3.org/2000/svg"><defs
     id="defs1" /><sodipodi:namedview
     id="namedview1"
     pagecolor="#ffffff"
     bordercolor="#000000"
     borderopacity="0.25"
     inkscape:showpageshadow="2"
     inkscape:pageopacity="0.0"
     inkscape:pagecheckerboard="0"
     inkscape:deskcolor="#d1d1d1"
     inkscape:zoom="12.58138"
     inkscape:cx="62.195083"
     inkscape:cy="102.33376"
     inkscape:window-width="1920"
     inkscape:window-height="991"
     inkscape:window-x="-9"
     inkscape:window-y="-9"
     inkscape:window-maximized="1"
     inkscape:current-layer="Layer_1" /><style
     type="text/css"
     id="style1">.st0{fill-rule:evenodd;clip-rule:evenodd;}</style><path
     id="path1"
     style="fill:#444eb3;fill-opacity:1"
     d="M 80 39.880859 C 79.42 39.880859 78.84 39.940781 78.25 40.050781 C 77.69 40.160781 77.129609 40.330781 76.599609 40.550781 C 76.059609 40.790781 75.550313 41.060859 75.070312 41.380859 C 74.580312 41.710859 74.130469 42.080469 73.730469 42.480469 C 73.330469 42.880469 72.960859 43.320312 72.630859 43.820312 C 72.310859 44.290312 72.030547 44.809609 71.810547 45.349609 C 71.580547 45.879609 71.420781 46.44 71.300781 47 C 71.190781 47.55 71.130859 48.140703 71.130859 48.720703 C 71.130859 49.300703 71.190781 49.879453 71.300781 50.439453 C 71.420781 50.999453 71.590547 51.559844 71.810547 52.089844 C 72.030547 52.629844 72.299375 53.129609 72.609375 53.599609 L 72.630859 53.630859 C 72.950859 54.120859 73.320469 54.560703 73.730469 54.970703 C 74.120469 55.360703 74.549531 55.709297 75.019531 56.029297 L 75.070312 56.070312 C 75.530313 56.380312 76.049609 56.660625 76.599609 56.890625 C 77.139609 57.120625 77.699766 57.280391 78.259766 57.400391 C 78.809766 57.500391 79.400469 57.560547 79.980469 57.560547 C 80.560469 57.560547 81.139219 57.510391 81.699219 57.400391 C 82.269219 57.280391 82.829375 57.110625 83.359375 56.890625 C 83.899375 56.670625 84.389141 56.399844 84.869141 56.089844 L 84.900391 56.070312 C 85.390391 55.750312 85.830234 55.380703 86.240234 54.970703 C 86.640234 54.570703 87.009844 54.130859 87.339844 53.630859 C 87.659844 53.160859 87.940156 52.639609 88.160156 52.099609 C 88.390156 51.559609 88.549922 50.999453 88.669922 50.439453 C 88.769922 49.889453 88.830078 49.300703 88.830078 48.720703 C 88.830078 48.140703 88.779922 47.56 88.669922 47 C 88.549922 46.44 88.380156 45.879609 88.160156 45.349609 C 87.940156 44.809609 87.669375 44.309844 87.359375 43.839844 L 87.339844 43.810547 C 87.019844 43.320547 86.650234 42.880703 86.240234 42.470703 C 86.220234 42.450703 86.189922 42.430156 86.169922 42.410156 C 85.779922 42.020156 85.360391 41.679141 84.900391 41.369141 C 84.430391 41.049141 83.909141 40.770781 83.369141 40.550781 C 82.839141 40.330781 82.280703 40.170781 81.720703 40.050781 C 81.170703 39.940781 80.58 39.880859 80 39.880859 z " /><path
     id="path3"
     style="fill:#444eb3;fill-opacity:1"
     d="M 79.359375 90.666016 L 74.240234 90.666016 L 74.240234 116.83984 C 74.240234 117.54984 74.52 118.19016 75 118.66016 C 75.47 119.12016 76.100547 119.41016 76.810547 119.41016 L 95.779297 119.41016 C 95.869297 119.65016 96.000859 119.88938 96.130859 120.10938 C 96.370859 120.49938 96.660469 120.87922 96.980469 121.19922 C 97.510469 121.71922 98.129844 122.14945 98.839844 122.43945 L 98.880859 122.44922 C 99.560859 122.72922 100.2793 122.86914 101.0293 122.86914 C 101.7993 122.86914 102.5407 122.71945 103.2207 122.43945 C 103.9307 122.14945 104.56008 121.71922 105.08008 121.19922 C 105.60008 120.67922 106.03031 120.04984 106.32031 119.33984 C 106.59031 118.64984 106.75 117.92039 106.75 117.15039 C 106.75 116.38039 106.60031 115.64094 106.32031 114.96094 C 106.03031 114.25094 105.60008 113.61961 105.08008 113.09961 C 104.55008 112.57961 103.9307 112.14938 103.2207 111.85938 C 102.5507 111.57938 101.7893 111.42969 101.0293 111.42969 C 100.2593 111.42969 99.519844 111.57937 98.839844 111.85938 C 98.129844 112.14937 97.500469 112.57961 96.980469 113.09961 C 96.740469 113.34961 96.520313 113.61039 96.320312 113.90039 C 96.220313 114.04039 96.129063 114.19008 96.039062 114.33008 L 79.359375 114.33008 L 79.359375 90.666016 z " /><path
     id="path2"
     style="fill:#444eb3;fill-opacity:1"
     d="M 59.800781 0 C 58.750781 0 57.730547 0.19984375 56.810547 0.58984375 C 55.850547 0.98984375 54.989531 1.5690625 54.269531 2.2890625 C 53.549531 3.0090625 52.970312 3.8798438 52.570312 4.8398438 C 52.190312 5.7598437 51.980469 6.7700781 51.980469 7.8300781 C 51.980469 8.8800781 52.190312 9.9003125 52.570312 10.820312 C 52.970313 11.780313 53.549531 12.639375 54.269531 13.359375 C 54.729531 13.819375 55.260078 14.230313 55.830078 14.570312 C 56.240078 14.800313 56.659375 15.009922 57.109375 15.169922 L 57.109375 22.439453 L 57.109375 22.580078 L 29.630859 22.580078 C 27.490859 22.580078 25.449844 23.009062 23.589844 23.789062 C 21.659844 24.599063 19.909219 25.780234 18.449219 27.240234 C 16.979219 28.700234 15.81 30.450859 15 32.380859 C 14.23 34.240859 13.800781 36.279922 13.800781 38.419922 L 13.800781 40.019531 L 6.890625 40.019531 C 5.960625 40.019531 5.0697656 40.210781 4.2597656 40.550781 C 3.4197656 40.900781 2.6592969 41.420781 2.0292969 42.050781 C 1.3892969 42.680781 0.87929687 43.439297 0.52929688 44.279297 C 0.17929687 45.089297 0 45.990156 0 46.910156 L 0 65.289062 C 0 66.209062 0.17929687 67.109922 0.52929688 67.919922 C 0.86929687 68.749922 1.3702344 69.489141 1.9902344 70.119141 L 2.0292969 70.160156 C 2.6592969 70.800156 3.4097656 71.310156 4.2597656 71.660156 C 5.0697656 72.000156 5.970625 72.179688 6.890625 72.179688 L 13.800781 72.179688 C 13.830781 74.229687 14.25 76.2 15 78 C 15.81 79.93 16.990937 81.680625 18.460938 83.140625 C 19.920938 84.610625 21.659609 85.779844 23.599609 86.589844 C 25.459609 87.359844 27.500625 87.789062 29.640625 87.789062 L 35.080078 87.789062 L 35.080078 98.609375 L 25.970703 98.609375 C 25.870703 98.389375 25.750625 98.19 25.640625 98 C 25.420625 97.65 25.149375 97.319297 24.859375 97.029297 L 24.820312 97 C 24.310312 96.48 23.689766 96.069297 23.009766 95.779297 C 22.339766 95.509297 21.600313 95.349609 20.820312 95.349609 C 20.050313 95.349609 19.310859 95.499297 18.630859 95.779297 C 17.920859 96.069297 17.270469 96.499766 16.730469 97.009766 C 16.210469 97.529766 15.780234 98.159141 15.490234 98.869141 C 15.220234 99.559141 15.060547 100.31031 15.060547 101.07031 C 15.060547 101.84031 15.210234 102.57977 15.490234 103.25977 C 15.780234 103.96977 16.210469 104.59914 16.730469 105.11914 C 17.260469 105.63914 17.879844 106.06937 18.589844 106.35938 L 18.630859 106.36914 C 19.310859 106.63914 20.029297 106.78906 20.779297 106.78906 C 21.549297 106.78906 22.290703 106.63938 22.970703 106.35938 C 23.680703 106.06938 24.310078 105.63914 24.830078 105.11914 L 24.880859 105.08008 C 25.150859 104.82008 25.380078 104.53047 25.580078 104.23047 C 25.690078 104.05047 25.790859 103.89094 25.880859 103.71094 L 37.619141 103.71094 C 38.329141 103.71094 38.959688 103.43094 39.429688 102.96094 C 39.889688 102.50094 40.179688 101.87016 40.179688 101.16016 L 40.179688 87.789062 L 56.740234 87.789062 L 56.740234 112.0293 C 56.550234 112.1293 56.359687 112.23008 56.179688 112.33008 L 56.140625 112.35938 C 55.810625 112.56937 55.500469 112.80984 55.230469 113.08984 C 54.710469 113.61984 54.280234 114.23922 53.990234 114.94922 L 53.980469 114.99023 C 53.700469 115.67023 53.560547 116.39062 53.560547 117.14062 C 53.560547 117.91062 53.720234 118.65008 53.990234 119.33008 C 54.280234 120.04008 54.710469 120.66945 55.230469 121.18945 C 55.750469 121.70945 56.379844 122.13969 57.089844 122.42969 C 57.769844 122.69969 58.509297 122.85938 59.279297 122.85938 C 60.049297 122.85938 60.790703 122.70969 61.470703 122.42969 C 62.180703 122.13969 62.810078 121.70945 63.330078 121.18945 C 63.850078 120.65945 64.280312 120.04008 64.570312 119.33008 L 64.580078 119.28906 C 64.860078 118.60906 65 117.89062 65 117.14062 C 65 116.37063 64.850313 115.62922 64.570312 114.94922 C 64.280313 114.23922 63.860078 113.61984 63.330078 113.08984 C 63.050078 112.81984 62.730625 112.54984 62.390625 112.33984 C 62.210625 112.21984 62.020078 112.11953 61.830078 112.01953 L 61.830078 87.789062 L 74.240234 87.789062 L 74.240234 90.666016 L 79.359375 90.666016 L 79.359375 87.789062 L 89.939453 87.789062 C 92.079453 87.789062 94.110469 87.369844 95.980469 86.589844 C 97.910469 85.779844 99.659141 84.600625 101.11914 83.140625 C 102.58914 81.680625 103.76031 79.94 104.57031 78 C 105.32031 76.2 105.7493 74.229687 105.7793 72.179688 L 112.44922 72.179688 C 114.34922 72.179688 116.08031 71.400156 117.32031 70.160156 C 117.96031 69.530156 118.47031 68.769688 118.82031 67.929688 C 119.16031 67.119687 119.33984 66.220781 119.33984 65.300781 L 119.33984 46.919922 C 119.33984 45.989922 119.16031 45.109063 118.82031 44.289062 C 118.48031 43.459063 117.97938 42.719844 117.35938 42.089844 L 117.32031 42.050781 C 116.69031 41.410781 115.93984 40.900781 115.08984 40.550781 C 114.27984 40.210781 113.38094 40.029297 112.46094 40.029297 L 105.80078 40.029297 L 105.80078 38.429688 C 105.80078 36.289688 105.37961 34.260625 104.59961 32.390625 C 103.78961 30.460625 102.61039 28.71 101.15039 27.25 C 99.690391 25.78 97.949766 24.610781 96.009766 23.800781 C 94.149766 23.020781 92.110703 22.589844 89.970703 22.589844 L 62.490234 22.589844 L 62.490234 22.449219 L 62.490234 15.179688 C 62.930234 15.029688 63.359531 14.820078 63.769531 14.580078 C 64.329531 14.250078 64.840781 13.850391 65.300781 13.400391 L 65.339844 13.359375 C 66.059844 12.649375 66.639062 11.780313 67.039062 10.820312 C 67.419063 9.9003125 67.630859 8.8900781 67.630859 7.8300781 C 67.630859 6.7800781 67.419062 5.7598437 67.039062 4.8398438 C 66.639063 3.8698438 66.059844 3.0090625 65.339844 2.2890625 C 64.619844 1.5690625 63.749063 0.98984375 62.789062 0.58984375 C 61.869062 0.20984375 60.850781 0 59.800781 0 z M 29.630859 26.470703 L 89.980469 26.470703 C 91.600469 26.470703 93.139062 26.789141 94.539062 27.369141 C 95.999062 27.969141 97.319688 28.860703 98.429688 29.970703 C 99.529688 31.080703 100.4193 32.399375 101.0293 33.859375 C 101.6093 35.259375 101.92969 36.809922 101.92969 38.419922 L 101.92969 71.960938 C 101.92969 73.580938 101.6093 75.119531 101.0293 76.519531 C 100.4293 77.979531 99.539687 79.300156 98.429688 80.410156 C 97.319688 81.510156 95.999062 82.399766 94.539062 83.009766 C 93.129063 83.589766 91.590469 83.910156 89.980469 83.910156 L 29.619141 83.910156 C 27.999141 83.910156 26.460547 83.589766 25.060547 83.009766 C 23.600547 82.409766 22.279922 81.520156 21.169922 80.410156 C 20.069922 79.300156 19.180312 77.979531 18.570312 76.519531 C 17.990313 75.109531 17.669922 73.570937 17.669922 71.960938 L 17.669922 41.970703 L 17.679688 38.419922 C 17.679688 36.799922 18.000078 35.259375 18.580078 33.859375 C 19.180078 32.399375 20.069688 31.080703 21.179688 29.970703 C 22.289687 28.870703 23.610312 27.979141 25.070312 27.369141 C 26.480313 26.789141 28.020859 26.470703 29.630859 26.470703 z M 39.609375 39.880859 C 39.019375 39.880859 38.439141 39.940781 37.869141 40.050781 C 37.309141 40.160781 36.750703 40.330781 36.220703 40.550781 C 35.680703 40.770781 35.180937 41.039609 34.710938 41.349609 L 34.679688 41.369141 C 34.189687 41.689141 33.749844 42.060703 33.339844 42.470703 C 32.939844 42.870703 32.570234 43.310547 32.240234 43.810547 C 31.920234 44.280547 31.639922 44.799844 31.419922 45.339844 C 31.189922 45.869844 31.030156 46.430234 30.910156 46.990234 C 30.810156 47.540234 30.75 48.130938 30.75 48.710938 C 30.75 49.290937 30.800156 49.869687 30.910156 50.429688 C 31.030156 50.989688 31.199922 51.550078 31.419922 52.080078 C 31.639922 52.620078 31.910703 53.119844 32.220703 53.589844 L 32.240234 53.619141 C 32.560234 54.109141 32.929844 54.550938 33.339844 54.960938 C 33.739844 55.360937 34.179688 55.730547 34.679688 56.060547 C 35.159687 56.380547 35.680703 56.660859 36.220703 56.880859 C 36.760703 57.110859 37.320859 57.270625 37.880859 57.390625 C 38.430859 57.490625 39.019609 57.550781 39.599609 57.550781 C 40.179609 57.550781 40.760312 57.500625 41.320312 57.390625 C 41.890312 57.270625 42.450469 57.100859 42.980469 56.880859 C 44.600469 56.220859 45.990938 55.090859 46.960938 53.630859 C 47.280937 53.160859 47.559297 52.639609 47.779297 52.099609 C 47.999297 51.549609 48.169297 50.999453 48.279297 50.439453 C 48.399297 49.889453 48.460938 49.300703 48.460938 48.720703 C 48.460938 48.140703 48.389297 47.56 48.279297 47 C 48.169297 46.44 47.999297 45.879609 47.779297 45.349609 C 47.559297 44.809609 47.290469 44.309844 46.980469 43.839844 L 46.960938 43.810547 C 46.640938 43.320547 46.269375 42.880703 45.859375 42.470703 L 45.800781 42.419922 C 45.410781 42.029922 44.979766 41.679141 44.509766 41.369141 C 44.039766 41.049141 43.520469 40.770781 42.980469 40.550781 C 42.450469 40.330781 41.890078 40.170781 41.330078 40.050781 C 40.780078 39.940781 40.189375 39.880859 39.609375 39.880859 z M 6.890625 43.900391 L 13.789062 43.900391 L 13.789062 68.289062 L 6.8808594 68.289062 C 6.0508594 68.289062 5.2997656 67.950156 4.7597656 67.410156 C 4.4797656 67.130156 4.2596094 66.799688 4.0996094 66.429688 C 3.9596094 66.079687 3.8808594 65.689297 3.8808594 65.279297 L 3.8808594 46.900391 C 3.8808594 46.490391 3.9496094 46.1 4.0996094 45.75 C 4.2396094 45.4 4.4607031 45.080547 4.7207031 44.810547 L 4.7597656 44.779297 C 5.0397656 44.499297 5.3702344 44.279141 5.7402344 44.119141 C 6.0902344 43.979141 6.480625 43.900391 6.890625 43.900391 z M 105.82031 43.900391 L 112.48047 43.900391 C 112.89047 43.900391 113.28086 43.989141 113.63086 44.119141 C 114.00086 44.269141 114.32937 44.499297 114.60938 44.779297 C 114.88938 45.059297 115.10953 45.389766 115.26953 45.759766 C 115.40953 46.109766 115.49023 46.500156 115.49023 46.910156 L 115.49023 65.279297 C 115.49023 65.689297 115.41953 66.079688 115.26953 66.429688 C 115.11953 66.799688 114.88938 67.130156 114.60938 67.410156 C 114.32938 67.690156 114.00086 67.910313 113.63086 68.070312 C 113.28086 68.210313 112.89047 68.289062 112.48047 68.289062 L 105.82031 68.289062 L 105.82031 43.900391 z M 47.449219 65.599609 C 46.789219 65.609609 46.119375 65.83 45.609375 66.25 C 45.459375 66.37 45.350234 66.490859 45.240234 66.630859 C 44.940234 67.030859 44.790781 67.479453 44.800781 67.939453 C 44.810781 68.389453 44.980781 68.840469 45.300781 69.230469 C 45.410781 69.370469 45.520156 69.479844 45.660156 69.589844 L 45.710938 69.630859 C 48.020937 71.400859 50.370469 72.720313 52.730469 73.570312 C 55.110469 74.430312 57.499922 74.840547 59.919922 74.810547 C 62.329922 74.780547 64.710547 74.320937 67.060547 73.460938 C 69.410547 72.590937 71.719531 71.329922 74.019531 69.669922 C 74.179531 69.559922 74.309687 69.440547 74.429688 69.310547 C 74.759688 68.930547 74.940703 68.489297 74.970703 68.029297 C 75.000703 67.569297 74.860313 67.109219 74.570312 66.699219 C 74.460313 66.549219 74.350703 66.430547 74.220703 66.310547 C 73.720703 65.870547 73.060391 65.639375 72.400391 65.609375 C 71.740391 65.579375 71.069297 65.750625 70.529297 66.140625 C 68.689297 67.450625 66.889844 68.470391 65.089844 69.150391 C 63.309844 69.820391 61.569609 70.179219 59.849609 70.199219 C 58.139609 70.219219 56.410156 69.91 54.660156 69.25 C 52.890156 68.58 51.110781 67.569688 49.300781 66.179688 C 48.770781 65.779688 48.109219 65.589609 47.449219 65.599609 z " /></svg>
