<?xml version="1.0" encoding="UTF-8" standalone="no"?>
<svg
   shape-rendering="geometricPrecision"
   text-rendering="geometricPrecision"
   image-rendering="optimizeQuality"
   fill-rule="evenodd"
   clip-rule="evenodd"
   viewBox="0 0 464 511.943"
   version="1.1"
   id="svg9"
   sodipodi:docname="speaker-color-icon.svg"
   inkscape:version="1.4 (86a8ad7, 2024-10-11)"
   xmlns:inkscape="http://www.inkscape.org/namespaces/inkscape"
   xmlns:sodipodi="http://sodipodi.sourceforge.net/DTD/sodipodi-0.dtd"
   xmlns="http://www.w3.org/2000/svg"
   xmlns:svg="http://www.w3.org/2000/svg">
  <defs
     id="defs9" />
  <sodipodi:namedview
     id="namedview9"
     pagecolor="#ffffff"
     bordercolor="#000000"
     borderopacity="0.25"
     inkscape:showpageshadow="2"
     inkscape:pageopacity="0.0"
     inkscape:pagecheckerboard="0"
     inkscape:deskcolor="#d1d1d1"
     inkscape:zoom="1.5099337"
     inkscape:cx="232.12939"
     inkscape:cy="255.9715"
     inkscape:window-width="1920"
     inkscape:window-height="991"
     inkscape:window-x="-9"
     inkscape:window-y="-9"
     inkscape:window-maximized="1"
     inkscape:current-layer="svg9" />
  <path
     fill="#333"
     fill-rule="nonzero"
     d="M402.812 182.968c-217.191-596.587 192.196 527.965 0 0zM.008 282.185c-.347-30.717 11.293-58.339 38.451-69.204 1.007-1.521 1.996-2.7 3.756-4.174 3.137-2.633 5.986-3.412 9.675-4.819C182.096 156.09 232.065 81.455 260.485 39.008c8.297-12.391 14.915-22.275 21.744-29.092 3.787-3.782 6.766-6.213 11.242-7.894 4.628-1.738 8.934-1.896 14.932-.932 13.17 2.114 26.678 10.899 39.881 24.577 29.237 30.287 60.067 87.689 81.809 147.411 21.847 60.015 34.777 123.219 28.092 164.834-2.755 17.163-8.831 31.248-18.889 40.957l-.015-.016a14.568 14.568 0 01-1.917 1.55c-6.909 4.695-13.426 6.52-20.17 6.777-5.83.224-10.934-.768-16.606-1.946-10.214-2.122-19.99-4.91-30.529-7.914-34.313-9.782-77.12-21.978-145.136-13.998-1.355 4.506-2.35 9.319-2.392 13.615-.027 2.857.262 5.124 1.094 5.886l1.15 1.048c6.365 5.79 9.501 8.636 11.381 15.661 1.466 5.494.853 10.227-.353 19.544l-.404 3.136c-.679 5.345 2.066 6.518 4.808 7.686 8.034 3.426 16.068 6.851 20.424 18.483a14.46 14.46 0 01.978 8.592c-3.49 17.929-14.072 27.027-24.648 36.121-2.079 1.787-4.161 3.579-6.02 5.339l-.025-.026c-.3.284-.613.559-.942.822-25.219 20.166-42.758 14.158-56.326-2.811-8.65-10.816-14.128-25.92-19.241-40.018l-2.104-5.71c-7.3-19.758-12.777-43.381-18.312-67.97l-1.394.429a774.382 774.382 0 00-16.738 5.168c-.548.175-.833.29-1.065.382-4.974 1.978-7.47 2.966-11.478 1.53-33.127 8.506-60.671-7.634-79.174-33.526-7.553-10.569-13.529-22.835-17.64-35.615C2.415 308.376.153 295.016.008 282.185z"
     id="path1" />
  <path
     fill="#EDECF1"
     d="M48.129 224.977c-68.53 20.161-23.638 177.137 56.636 149.671 3.091 1.932 3.048 1.022 6.66-.142a747.833 747.833 0 0133.346-9.933c6.645 29.302 12.675 58.117 21.173 81.116 10.84 29.337 22.131 68.508 54.994 42.229 10.366-9.816 23.234-17.381 26.405-33.672-5.275-15.828-29.801-6.495-26.322-33.853 2.409-18.946 2.94-17.593-7.171-26.827-10.238-9.352-4.905-30.609.43-43.519 35.695-4.94 64.884-4.644 89.641-1.854-31.356-35.466-53.557-73.01-67.28-112.163-13.772-39.295-18.964-80.035-16.269-121.767-34.121 35.771-84.524 74.319-163.48 103.366-6.425 2.365-5.1 1.504-8.763 7.348z"
     id="path2" />
  <path
     fill="#333"
     fill-rule="nonzero"
     d="M359.598 374.605c-8.545-2.353-38.568-8.094-44.078-13.823-37.545-39.132-63.522-80.935-78.879-124.752-15.969-45.566-20.405-93.074-14.381-141.819.013.001 2.553-6.582 2.956-7.104 9.569-12.413 19.14-26.092 27.842-38.528 11.83-16.907 22.151-31.656 29.171-38.663 3.787-3.782 6.766-6.213 11.242-7.894 4.628-1.738 8.934-1.896 14.932-.932 13.17 2.114 26.678 10.899 39.881 24.577 29.237 30.287 60.067 87.689 81.809 147.411 21.847 60.015 34.777 123.219 28.092 164.834-2.755 17.163-8.831 31.248-18.889 40.957l-.015-.016a14.568 14.568 0 01-1.917 1.55c-6.91 4.697-13.428 6.518-20.17 6.775-5.832.224-10.934-.767-16.606-1.944-9.698-2.015-25.14-6.267-40.99-10.629z"
     id="path3" />
  <path
     fill="#FD6974"
     d="M325.978 350.723c14.694 3.485 34.903 9.262 52.241 13.954-35.477-35.542-64.45-90.148-84.041-146.05-20.91-59.671-31.192-121.716-27.392-164.393-9.375 13.391-19.851 28.459-30.089 41.739-11.321 91.591 15.853 178.217 89.281 254.75z"
     id="path4"
     style="fill:#7a73fd;fill-opacity:1" />
  <path
     fill="#DBD9E5"
     d="M144.628 364.458c5.525 24.562 14.126 61.771 21.316 81.231 10.839 29.337 22.131 68.508 54.994 42.229 10.366-9.816 23.234-17.381 26.405-33.672-5.275-15.828-29.801-6.495-26.322-33.853 2.409-18.946 2.94-17.593-7.171-26.827-9.858-9.004-5.28-29.043-.164-42.044 13.381-6.566 49.716-7.206 89.724-3.219-25.144-28.452-44.149-55.033-61.129-96.489-38.28 33.581-59.372 79.064-97.653 112.644z"
     id="path5" />
  <path
     fill="#333"
     fill-rule="nonzero"
     d="M274.829 20.012c2.38-5.696 5.618-10.166 9.606-13.488 8.913-7.426 19.577-8.306 31.311-3.687 8.464 3.334 17.63 9.88 27.011 18.999 21.114 20.518 45.152 55.812 65.117 96.91 25.42 52.323 46.094 114.063 53.328 163.758 3.558 24.438 3.892 46.367.023 63.482-4.662 20.631-15.215 34.882-33.057 39.815-6.117 1.689-12.814 2.147-20.108 1.236a14.48 14.48 0 01-7.69-3.382c-45.607-32.618-82.664-97.893-106.192-165.028-27.581-78.704-36.678-161.551-19.349-198.615z"
     id="path6" />
  <path
     fill="#fff"
     d="M288.225 25.624c14.866-35.699 68.106 20.245 106.576 99.431C447.244 233 478.894 381.239 409.822 372.6 315.864 306.748 258.123 87.821 288.225 25.624z"
     id="path7" />
  <path
     fill="#EDECF1"
     d="M403.564 143.912c46.963 105.514 71.386 236.834 6.258 228.688-29.31-20.542-55.094-55.983-75.789-96.913-37.74-86.051-53.578-187.205-34.64-226.333 14.559-34.962 65.92 17.977 104.171 94.558z"
     id="path8" />
  <path
     fill="#333"
     d="M366.848 221.162c0 22.754-27.78 68.398-37.167 48.868-14.435-30.035-26.172-61.078-33.599-94.307-2.371-10.656 70.766-9.243 70.766 45.439z"
     id="path9" />
</svg>
