<!DOCTYPE svg PUBLIC "-//W3C//DTD SVG 1.1//EN" "http://www.w3.org/Graphics/SVG/1.1/DTD/svg11.dtd">
<!-- Uploaded to: SVG Repo, www.svgrepo.com, Transformed by: SVG Repo Mixer Tools -->
<svg height="64px" width="64px" version="1.1" id="Capa_1" xmlns="http://www.w3.org/2000/svg" xmlns:xlink="http://www.w3.org/1999/xlink" viewBox="0 0 179.004 179.004" xml:space="preserve" fill="#000000" stroke="#000000">
<g id="SVGRepo_bgCarrier" stroke-width="0"/>
<g id="SVGRepo_tracerCarrier" stroke-linecap="round" stroke-linejoin="round"/>
<g id="SVGRepo_iconCarrier"> <g> <path style="fill:#010002;" d="M127.124,127.773c0,0.77,0,1.504,0,2.22c4.075,1.671,7.769,2.685,10.472,1.939 c5.955-1.635,10.705-8.169,15.293-14.488c3.574-4.905,6.951-9.517,11.116-12.22c0-30.419,0-70.212,0-83.286 c-0.018,0.012-0.036,0.024-0.054,0.036c-0.519-4.344-15.365-4.571-18.396-4.571c-3.025,0-17.871,0.227-18.402,4.571 c-0.012-0.012-0.03-0.024-0.042-0.036c0,12.059,0,46.858,0,76.048c6.128,0.37,15.943,2.387,17.531,13.3 c0.537,3.61-0.316,6.922-2.446,9.553C139.064,124.73,133.556,126.675,127.124,127.773z M130.221,22.213 c1.575-0.835,6.808-2.047,15.335-2.047c8.539,0,13.778,1.211,15.335,2.047c-1.569,0.829-6.802,2.041-15.335,2.041 C137.029,24.248,131.796,23.036,130.221,22.213z M114.242,98.326c1.456-0.095,2.948-0.185,4.439-0.269c0-20.544,0-42.979,0-54.304 c-0.018,0.012-0.036,0.012-0.054,0.024c-0.519-4.332-15.365-4.559-18.39-4.559c-3.025,0-17.877,0.227-18.396,4.559 c-0.012-0.012-0.036-0.012-0.048-0.024c0,10.663,0,31.195,0,50.706c0.853,0.197,1.701,0.4,2.566,0.615 c5.967,1.438,12.131,2.924,18.121,3.485C105.948,98.893,110.071,98.589,114.242,98.326z M84.903,44.004 c1.575-0.841,6.82-2.035,15.341-2.035c8.533,0,13.783,1.193,15.335,2.035c-1.563,0.841-6.808,2.047-15.335,2.047 C91.723,46.051,86.478,44.845,84.903,44.004z M73.375,92.646c0-8.926,0-12.703,0-27.096c-0.018,0.018-0.036,0.024-0.054,0.036 c-0.519-4.338-15.365-4.571-18.396-4.571c-3.019,0-17.877,0.233-18.396,4.571c-0.006-0.012-0.03-0.018-0.042-0.036 c0,17.93,0,19.392,0,34.876c6.981-4.266,14.404-7.584,22.316-8.592C63.398,91.25,68.285,91.727,73.375,92.646z M54.931,67.848 c-8.533,0-13.778-1.205-15.335-2.053c1.575-0.829,6.814-2.029,15.335-2.029c8.539,0,13.778,1.199,15.341,2.029 C68.703,66.642,63.464,67.848,54.931,67.848z M0,131.639c15.812-6.689,35.962-32.436,59.37-35.443 c12.16-1.569,27.489,5.334,42.711,6.749c13.39,1.247,36.058-5.854,38.218,8.992c1.88,12.859-20.806,12.16-35.968,13.497 c11.856,2.363,24.661,13.449,34.435,10.758c12.59-3.479,19.13-22.083,27.907-27.477c9.929-6.104,13.777-2.166,11.85,5.49 c-4.791,19.082-13.008,36.708-29.22,42.705c-42.299,15.645-87.886-14.452-119.809,4.242L0,131.639z"/> </g> </g>
</svg>