<?xml version="1.0" encoding="utf-8"?>
<!-- Generator: Adobe Illustrator 27.5.0, SVG Export Plug-In . SVG Version: 6.00 Build 0)  -->
<svg version="1.1" id="Layer_2" xmlns="http://www.w3.org/2000/svg" xmlns:xlink="http://www.w3.org/1999/xlink" x="0px" y="0px"
	 viewBox="0 0 326.234 396.83" style="enable-background:new 0 0 326.234 396.83;" xml:space="preserve">
<g>
	<g>
		<g>
			<ellipse style="fill:#F68B1F;" cx="163.117" cy="301.905" rx="100.317" ry="36.468"/>
			<ellipse style="fill:#F68B1F;" cx="163.117" cy="301.905" rx="100.317" ry="36.468"/>
		</g>
		<g>
			<path style="fill:#FBEAD5;" d="M270.728,386.909c0,0,11.81-98.022-107.637-98.022h0.053
				c-119.447,0-107.637,98.022-107.637,98.022H270.728z"/>
			<ellipse style="fill:#FBEAD5;" cx="163.117" cy="311.136" rx="42.965" ry="25.115"/>
		</g>
		<g>
			<g>
				<g>
					<path style="fill:#F68B1F;" d="M118.468,346.671l7.807,8.222l-10.358,32.016H8.156c0,0,11.777-59.67,17.469-62.222
						c5.692-2.552,35.724-8.637,35.724-8.637S90.007,325.276,118.468,346.671z"/>
					<path style="opacity:0.6;fill:#F68B1F;" d="M69.419,322.448c0.156,0.103,0.313,0.206,0.469,0.31
						c3.71,2.471,7.311,5.108,10.787,7.898c14.526,11.659,28.233,26.158,35.234,43.677c0.844,2.113,1.447,4.313,1.913,6.543
						c0.006,0.03,0.012,0.06,0.018,0.09l8.436-26.074l-7.807-8.222c-28.461-21.395-57.119-30.62-57.119-30.62
						s-0.85,0.172-2.287,0.47c1.136-0.236,4.707,2.5,5.745,3.096C66.375,320.519,67.908,321.456,69.419,322.448z"/>
					<path style="opacity:0.5;fill:#F68B1F;" d="M51.303,382.318c0,0-2.476-39.381-24.839-57.968
						c-0.318,0.118-0.602,0.231-0.839,0.338c-0.889,0.399-1.927,2.192-3.046,4.934C27.574,333.381,43.971,347.996,51.303,382.318z"
						/>
					<path style="opacity:0.6;fill:#F68B1F;" d="M39.867,369.815c2.23,7.406,2.425,13.736,2.314,17.094h4.641
						C46.258,373.905,39.867,369.815,39.867,369.815z"/>
				</g>
				<g>
					<path style="fill:#F68B1F;" d="M67.914,289.99c0,0,61.501,36.901,58.36,64.903c0,0-45.537-29.835-70.661-37.424
						C55.614,317.469,61.876,296.098,67.914,289.99z"/>
					<path style="opacity:0.3;fill:#F68B1F;" d="M67.914,289.99c0,0,61.501,36.901,58.36,64.903c0,0-45.537-29.835-70.661-37.424
						C55.614,317.469,61.876,296.098,67.914,289.99z"/>
				</g>
				<g>
					<polygon style="fill:#7E6256;" points="82.13,324.082 82.024,324.657 70.587,386.909 80.74,386.909 88.377,327.835 
						88.84,324.254 					"/>
					<g>
						<path style="fill:#FDC581;" d="M90.822,320.646c0,3.212-2.604,5.817-5.817,5.817c-3.212,0-5.817-2.604-5.817-5.817
							s2.604-5.817,5.817-5.817C88.218,314.829,90.822,317.433,90.822,320.646z"/>
						<path style="opacity:0.4;fill:#FDC581;" d="M86.502,318.728c0,1.331-1.079,2.41-2.41,2.41c-1.331,0-2.41-1.079-2.41-2.41
							c0-1.331,1.079-2.41,2.41-2.41C85.423,316.317,86.502,317.397,86.502,318.728z"/>
					</g>
				</g>
			</g>
			<g>
				<g>
					<path style="fill:#F68B1F;" d="M207.766,346.671l-7.807,8.222l10.358,32.016h107.76c0,0-11.777-59.67-17.469-62.222
						c-5.692-2.552-35.724-8.637-35.724-8.637S236.227,325.276,207.766,346.671z"/>
					<path style="opacity:0.6;fill:#F68B1F;" d="M256.815,322.448c-0.156,0.103-0.313,0.206-0.469,0.31
						c-3.711,2.471-7.311,5.108-10.787,7.898c-14.525,11.659-28.233,26.158-35.234,43.677c-0.844,2.113-1.447,4.313-1.913,6.543
						c-0.006,0.03-0.012,0.06-0.018,0.09l-8.436-26.074l7.807-8.222c28.461-21.395,57.119-30.62,57.119-30.62s0.85,0.172,2.287,0.47
						c-1.137-0.236-4.707,2.5-5.745,3.096C259.858,320.519,258.326,321.456,256.815,322.448z"/>
					<path style="opacity:0.5;fill:#F68B1F;" d="M274.93,382.318c0,0,2.476-39.381,24.839-57.968
						c0.318,0.118,0.602,0.231,0.839,0.338c0.889,0.399,1.928,2.192,3.046,4.934C298.659,333.381,282.263,347.996,274.93,382.318z"
						/>
					<path style="opacity:0.6;fill:#F68B1F;" d="M286.366,369.815c-2.23,7.406-2.425,13.736-2.314,17.094h-4.641
						C279.975,373.905,286.366,369.815,286.366,369.815z"/>
				</g>
				<g>
					<path style="fill:#F68B1F;" d="M258.32,289.99c0,0-61.501,36.901-58.36,64.903c0,0,45.537-29.835,70.661-37.424
						C270.62,317.469,264.358,296.098,258.32,289.99z"/>
					<path style="opacity:0.3;fill:#F68B1F;" d="M258.32,289.99c0,0-61.501,36.901-58.36,64.903c0,0,45.537-29.835,70.661-37.424
						C270.62,317.469,264.358,296.098,258.32,289.99z"/>
				</g>
				<g>
					<polygon style="fill:#7E6256;" points="244.104,324.082 244.209,324.657 255.647,386.909 245.494,386.909 237.856,327.835 
						237.393,324.254 					"/>
					<g>
						<path style="fill:#FDC581;" d="M235.412,320.646c0,3.212,2.604,5.817,5.817,5.817c3.213,0,5.817-2.604,5.817-5.817
							s-2.604-5.817-5.817-5.817C238.016,314.829,235.412,317.433,235.412,320.646z"/>
						<path style="opacity:0.4;fill:#FDC581;" d="M239.732,318.728c0,1.331,1.079,2.41,2.41,2.41s2.41-1.079,2.41-2.41
							c0-1.331-1.079-2.41-2.41-2.41S239.732,317.397,239.732,318.728z"/>
					</g>
				</g>
			</g>
		</g>
		<g>
			<path style="fill:#F6B687;" d="M128.783,236.225c0,0,2.894,42.254-4.18,68.663c0,0,6.109,27.399,38.584,27.399h-0.141
				c32.475,0,38.584-27.399,38.584-27.399c-7.074-26.409-4.18-68.663-4.18-68.663S162.261,251.789,128.783,236.225z"/>
			<path style="fill:#F6B687;" d="M197.451,236.225c0,0-35.19,15.564-68.667,0c0,0,0.585,8.545,0.586,20.35
				c9.662,5.988,21.528,10.933,34.493,11.077h0.001c12.306-0.136,23.622-4.599,33.003-10.173
				C196.836,245.209,197.451,236.225,197.451,236.225z"/>
		</g>
	</g>
	<g>
		<g>
			<g>
				<path style="fill:#F6B687;" d="M95.585,161.773c-2.077-5.673-4.487-11.253-8.535-15.826c-7.426-8.391-21.109-4.443-25.014,5.466
					c-3.085,7.827,0.24,16.845,4.132,23.771c3.582,6.374,8.29,12.873,15.351,15.763c5.885,2.408,16.64,3.232,18.982-4.495
					c1.937-6.392-1.429-14.816-3.535-20.805C96.512,164.357,96.057,163.063,95.585,161.773z"/>
				<path style="fill:#F6B687;" d="M86.388,163.087c0,0-5.164-2.734-5.468,3.544c-0.304,6.278,5.265,9.821,5.265,9.821
					s-15.39,2.632-16.909-13.467C67.758,146.887,83.351,148.304,86.388,163.087z"/>
			</g>
			<g>
				<path style="fill:#F6B687;" d="M231.743,161.773c2.077-5.673,4.487-11.253,8.535-15.826c7.426-8.391,21.109-4.443,25.014,5.466
					c3.085,7.827-0.24,16.845-4.132,23.771c-3.582,6.374-8.29,12.873-15.352,15.763c-5.885,2.408-16.64,3.232-18.982-4.495
					c-1.937-6.392,1.429-14.816,3.535-20.805C230.816,164.357,231.271,163.063,231.743,161.773z"/>
				<path style="fill:#F6B687;" d="M240.94,163.087c0,0,5.164-2.734,5.468,3.544c0.304,6.278-5.265,9.821-5.265,9.821
					s15.39,2.632,16.909-13.467S243.978,148.304,240.94,163.087z"/>
			</g>
		</g>
		<path style="fill:#F6B687;" d="M235.59,98.539c0,0,5.992,77.162-11.577,122.091c-0.483,1.236-1.174,2.373-2.052,3.359
			c-5.681,6.378-29.154,30.612-58.088,30.933h-0.001c-28.934-0.32-52.406-24.554-58.088-30.933
			c-0.878-0.986-1.569-2.123-2.052-3.359C86.163,175.701,92.155,98.539,92.155,98.539s1.178-49.054,75.177-49.054
			S235.59,98.539,235.59,98.539z"/>
		<path style="fill:#F6B687;" d="M167.332,49.486c-73.999,0-75.177,49.054-75.177,49.054s-3.98,51.269,4.063,94.559
			c-1.885-22.609-2.417-58.91,11.702-71.095c0,0,26.833-4.039,44.145-18.466c0,0-4.328,5.771-11.83,10.099
			c0,0,49.916,6.059,79.346-35.201c0,0-5.354,31.932,16.935,43.147c-0.213-13.866-0.926-23.043-0.926-23.043
			S241.332,49.486,167.332,49.486z"/>
		<g>
			<g>
				<path style="opacity:0.6;fill:#FED09E;" d="M183.11,189.296c0,0-3.837,8.742-12.058,5.861c0,0-1.557,4.3-6.55,4.3h-0.105
					c-4.993,0-6.55-4.3-6.55-4.3c-8.221,2.881-12.058-5.861-12.058-5.861s14.558-21.864,18.889-21.864
					S183.11,189.296,183.11,189.296z"/>
				<g>
					<path style="fill:#754C29;" d="M152.705,192.082c-1.052,0.445,1.048,2.235,2.9,3.599c0.708-0.08,1.455-0.248,2.243-0.524
						C157.848,195.157,154.461,191.339,152.705,192.082z"/>
					<path style="fill:#754C29;" d="M176.22,192.082c1.052,0.445-1.048,2.235-2.9,3.599c-0.708-0.08-1.455-0.248-2.243-0.524
						C171.077,195.157,174.464,191.339,176.22,192.082z"/>
				</g>
				<path style="fill:#FED09E;" d="M179.987,189.078c-1.873-0.3-3.751-0.568-5.635-0.794c-3.758-0.452-7.537-0.741-11.323-0.799
					c-3.375-0.052-6.775,0.048-10.128,0.456c-2.356,0.287-4.755,0.749-6.972,1.642c0.747,1.477,4.589,8.142,11.919,5.574
					c0,0,1.557,4.3,6.55,4.3h0.105c4.993,0,6.55-4.3,6.55-4.3c7.145,2.504,10.977-3.769,11.858-5.454
					C181.943,189.455,180.969,189.236,179.987,189.078z"/>
			</g>
			<g>
				<g>
					<g>
						<path style="fill:#FFFFFF;" d="M119.944,166.21c0,0-11.8-1.844-12.853-11.431c-1.053-9.587,8.639-16.277,17.91-15.118
							s16.12,8.948,17.279,23.016C142.279,162.676,133.166,168.896,119.944,166.21z"/>
						<path style="fill:#844E3D;" d="M111.716,162.37c3.986,2.374,8.584,3.613,13.181,4.039c1.523,0.164,3.134,0.166,4.665,0.207
							c0.159-0.006,0.191,0.245,0.021,0.265c-0.781,0.1-1.567,0.203-2.356,0.254c-3.958,0.22-8.012-0.4-11.639-2.033
							c-1.449-0.659-2.844-1.453-4.04-2.526C111.433,162.468,111.576,162.27,111.716,162.37L111.716,162.37z"/>
						<path style="fill:#231F20;" d="M139.8,150.991c-3.125-8.509-10.444-13.163-19.513-12.284c-3.931,0.381-7.901,1.753-10.647,4.7
							c-1.361,1.46-2.41,3.21-3.062,5.096c-0.669,1.936-0.74,3.895-0.314,5.898c0.364,1.714,1.047,3.374,2.005,4.843
							c0.07,0.124,0.282,0.037,0.246-0.1c-0.484-2.601-0.644-5.16-0.271-7.571c1.089-7.635,9.647-11.031,16.556-10.971
							c5.253,0.063,9.879,2.7,12.664,7.174c1.416,2.177,2.416,4.612,3.171,7.097c0.761,2.499,1.323,5.072,1.505,7.68
							c0.005,0.073,0.068,0.129,0.141,0.124c0.073-0.005,0.129-0.068,0.124-0.141C142.117,158.587,141.218,154.686,139.8,150.991z"
							/>
						<g>
							
								<ellipse transform="matrix(0.9732 -0.2298 0.2298 0.9732 -31.8893 33.2422)" style="fill:#8A4A2E;" cx="126.806" cy="153.562" rx="11.255" ry="11.255"/>
							<path style="fill:#241F20;" d="M120.352,153.563c0,3.564,2.889,6.454,6.454,6.454c3.564,0,6.454-2.889,6.454-6.454
								c0-3.564-2.889-6.454-6.454-6.454C123.242,147.109,120.352,149.998,120.352,153.563z"/>
							<path style="fill:#FFFFFF;" d="M128.568,151.266c0,2.242,1.818,4.06,4.06,4.06c2.243,0,4.06-1.818,4.06-4.06
								c0-2.243-1.818-4.06-4.06-4.06C130.386,147.206,128.568,149.024,128.568,151.266z"/>
						</g>
					</g>
					<path style="fill:#231F20;" d="M145.411,134.985l2.205-10.291c0,0-34.059-12.864-51.823,3.43
						C95.793,128.124,108.657,122.121,145.411,134.985z"/>
				</g>
				<g>
					<g>
						<path style="fill:#FFFFFF;" d="M208.956,166.21c0,0,11.8-1.844,12.853-11.431c1.054-9.587-8.639-16.277-17.91-15.118
							s-16.12,8.948-17.279,23.016C186.621,162.676,195.734,168.896,208.956,166.21z"/>
						<path style="fill:#844E3D;" d="M217.184,162.37c-3.986,2.374-8.584,3.613-13.181,4.039c-1.523,0.164-3.134,0.166-4.665,0.207
							c-0.159-0.006-0.191,0.245-0.021,0.265c0.781,0.1,1.567,0.203,2.356,0.254c3.959,0.22,8.013-0.4,11.639-2.033
							c1.449-0.659,2.844-1.453,4.04-2.526C217.468,162.468,217.324,162.27,217.184,162.37L217.184,162.37z"/>
						<path style="fill:#231F20;" d="M189.1,150.991c3.125-8.509,10.444-13.163,19.513-12.284c3.932,0.381,7.901,1.753,10.647,4.7
							c1.361,1.46,2.41,3.21,3.062,5.096c0.669,1.936,0.74,3.895,0.314,5.898c-0.365,1.714-1.046,3.374-2.004,4.843
							c-0.071,0.124-0.282,0.037-0.246-0.1c0.484-2.601,0.644-5.16,0.271-7.571c-1.089-7.635-9.647-11.031-16.556-10.971
							c-5.253,0.063-9.879,2.7-12.664,7.174c-1.416,2.177-2.416,4.612-3.171,7.097c-0.761,2.499-1.323,5.072-1.505,7.68
							c-0.005,0.073-0.068,0.129-0.141,0.124c-0.073-0.005-0.129-0.068-0.124-0.141C186.783,158.587,187.682,154.686,189.1,150.991z
							"/>
						<g>
							
								<ellipse transform="matrix(0.7071 -0.7071 0.7071 0.7071 -49.3931 187.8795)" style="fill:#8A4A2E;" cx="202.094" cy="153.562" rx="11.255" ry="11.255"/>
							<path style="fill:#241F20;" d="M208.548,153.563c0,3.564-2.889,6.454-6.454,6.454c-3.564,0-6.454-2.889-6.454-6.454
								c0-3.564,2.889-6.454,6.454-6.454C205.658,147.109,208.548,149.998,208.548,153.563z"/>
							<circle style="fill:#FFFFFF;" cx="196.272" cy="151.266" r="4.06"/>
						</g>
					</g>
					<path style="fill:#231F20;" d="M183.489,134.985l-2.205-10.291c0,0,34.059-12.864,51.823,3.43
						C233.107,128.124,220.243,122.121,183.489,134.985z"/>
				</g>
			</g>
			<path style="fill:#231F20;" d="M139.221,213.039c11.056,7.323,26.281,6.951,38.682,3.595c4.336-1.162,8.558-2.737,12.622-4.634
				l0.467,1.079c-8.416,3.351-17.218,5.894-26.282,6.58c-7.952,0.609-16.144-0.191-23.586-3.188
				c-1.111-0.467-2.167-0.942-3.216-1.571L139.221,213.039L139.221,213.039z"/>
		</g>
		<g>
			<path style="fill:#593A34;" d="M83.144,90.302c0,0-13.155,42.268,9.704,83.243c0,0-3.019-41.621,3.882-70.519L83.144,90.302z"/>
			<path style="fill:#593A34;" d="M83.144,90.302c0,0-13.155,42.268,9.704,83.243c0,0-3.019-41.621,3.882-70.519L83.144,90.302z"/>
		</g>
		<g>
			<path style="fill:#593A34;" d="M252.522,90.929c0,0,16.276,43.552-20.239,81.999c0,0,7.428-41.194-0.627-70.747L252.522,90.929z"
				/>
			<path style="fill:#593A34;" d="M252.522,90.929c0,0,16.276,43.552-20.239,81.999c0,0,7.428-41.194-0.627-70.747L252.522,90.929z"
				/>
		</g>
		<g>
			<path style="fill:#593A34;" d="M256.517,64.874c19.579,20.99,0.705,65.262,0.705,65.262
				c3.351-16.404-15.345-30.515-15.345-30.515c0.706,11.641,9.348,20.284,9.348,20.284C212.95,114.438,223.62,71.11,223.62,71.11
				s-31.095,41.69-72.555,35.241c0,0,23.264-8.522,33.629-27.64c0,0-31.786,32.477-91.903,41.229c0,0,22.948-4.693,29.03-9.815
				c0,0-36.977,14.887-71.872,4.962c0,0,16.327-0.96,26.252-9.444c0,0-15.687,7.683-32.815,1.601c0,0,16.327,0.32,25.291-17.288
				c8.964-17.608,13.126-28.973,23.691-34.736c0,0-21.45,11.205-38.577-6.723c0,0,13.446,9.444,29.773,1.441
				s28.973-29.453,62.108-28.173c0,0-19.209-1.121-27.853-11.845c0.596,0.74,2.408,1.196,3.237,1.527
				c3.262,1.302,6.712,2.142,10.176,2.691c9.198,1.459,18.652,0.346,27.798-0.987c22.715-3.311,53.116-2.603,67.357,18.872
				c1.51,2.277,2.753,4.726,3.717,7.283c1.454,3.858,2.205,7.956,2.327,12.072c-0.005-0.175,2.183-0.616,2.336-0.649
				c2.024-0.438,4.105-0.629,6.175-0.593c6.79,0.117,13.192,2.849,18.248,7.338c4.38,3.888,7.446,8.756,10.199,13.867
				c-2.089-3.88-6.795-6.671-11.205-6.601C257.978,64.745,256.632,64.997,256.517,64.874z"/>
			<g>
				<path style="fill:#8B5E3C;" d="M145.346,25.004c0,0-5.949-0.347-12.791-2.482c-23.737,3.867-35.016,20.566-48.991,27.417
					c-16.327,8.004-29.773-1.441-29.773-1.441c4.52,4.731,9.341,7.432,13.989,8.847c4.101-0.05,8.711-0.931,13.57-3.312
					C98.174,45.786,111.204,23.684,145.346,25.004z"/>
				<path style="fill:#8B5E3C;" d="M159.11,16.128c23.274-3.393,54.377-2.687,69.153,19.08c-0.572-1.091-1.196-2.156-1.877-3.183
					C212.146,10.549,181.745,9.84,159.03,13.152c-9.146,1.333-18.6,2.446-27.798,0.987c-3.464-0.55-6.914-1.389-10.176-2.691
					c-0.828-0.331-2.641-0.787-3.237-1.527c2.095,2.6,4.812,4.634,7.725,6.226c1.627,0.407,3.273,0.737,4.924,0.999
					C139.945,18.648,149.686,17.501,159.11,16.128z"/>
			</g>
		</g>
	</g>
</g>
</svg>
