<?xml version="1.0" encoding="utf-8"?>
<!-- Generator: Adobe Illustrator 27.5.0, SVG Export Plug-In . SVG Version: 6.00 Build 0)  -->
<svg version="1.1" xmlns="http://www.w3.org/2000/svg" xmlns:xlink="http://www.w3.org/1999/xlink" x="0px" y="0px"
	 viewBox="0 0 293.41 400" style="enable-background:new 0 0 293.41 400;" xml:space="preserve">
<g id="Layer_1">
</g>
<g id="Layer_2">
	<g>
		<g>
			<path style="fill:#3A3F4F;" d="M143.482,30.138c-12.414-4.055-26.18-1.992-38.234,3.034
				c-10.345,4.313-20.146,11.156-25.249,21.135c-4.81,9.407-4.934,20.403-6.741,30.812c-2.766,15.938-9.76,31.122-20.075,43.582
				c-10.603,12.809-25.038,23.484-29.873,39.394c-5.533,18.204,3.209,37.375,11.826,54.338
				c8.617,16.963,17.581,35.949,12.477,54.277c-4.719,16.945-21.077,31.676-17.087,48.807c2.756,11.835,14.405,19.21,25.515,24.131
				c54.074,23.95,117.441,19.507,173.182-0.253c11.528-4.087,23.538-9.358,30.207-19.61c8.799-13.526,5.645-31.522-0.17-46.574
				c-5.815-15.052-14.077-29.702-14.749-45.824c-0.51-12.233,3.433-24.159,5.226-36.271c3.039-20.531-0.278-42.005-9.666-60.515
				c-9.576-18.881-25.134-34.478-32.976-54.142c-3.425-8.587-5.688-18.366-12.922-24.122c-8.132-6.471-20.462-1.804-26.819-9.921
				C159.972,42.99,155.903,34.195,143.482,30.138z"/>
			<path style="fill:#3A3F4F;" d="M143.482,30.138c-12.414-4.055-26.18-1.992-38.234,3.034
				c-10.345,4.313-20.146,11.156-25.249,21.135c-4.81,9.407-4.934,20.403-6.741,30.812c-2.766,15.938-9.76,31.122-20.075,43.582
				c-10.603,12.809-25.038,23.484-29.873,39.394c-5.533,18.204,3.209,37.375,11.826,54.338
				c8.617,16.963,17.581,35.949,12.477,54.277c-4.719,16.945-21.077,31.676-17.087,48.807c2.756,11.835,14.405,19.21,25.515,24.131
				c54.074,23.95,117.441,19.507,173.182-0.253c11.528-4.087,23.538-9.358,30.207-19.61c8.799-13.526,5.645-31.522-0.17-46.574
				c-5.815-15.052-14.077-29.702-14.749-45.824c-0.51-12.233,3.433-24.159,5.226-36.271c3.039-20.531-0.278-42.005-9.666-60.515
				c-9.576-18.881-25.134-34.478-32.976-54.142c-3.425-8.587-5.688-18.366-12.922-24.122c-8.132-6.471-20.462-1.804-26.819-9.921
				C159.972,42.99,155.903,34.195,143.482,30.138z"/>
			<path style="opacity:0.6;fill:#3A3F4F;" d="M225.957,297.197c-11.372-5.257-22.275-12.375-30.487-21.943
				c-3.971-4.626-7.263-9.855-9.394-15.582c-2.377-6.387-3.276-13.374-2.78-20.162c1.005-13.745,7.838-26.028,14.976-37.489
				c3.907-6.273,7.977-12.443,11.587-18.896c3.743-6.69,7.098-13.602,9.94-20.724c5.021-12.583,8.417-25.842,9.555-39.352
				c-8.124-11.852-16.956-23.291-22.259-36.589c-3.425-8.587-5.688-18.366-12.922-24.122c-8.132-6.471-20.462-1.804-26.819-9.92
				c-7.383-9.427-11.451-18.222-23.873-22.279c-12.414-4.055-26.18-1.992-38.234,3.034c-10.345,4.313-20.146,11.156-25.249,21.135
				c-0.368,0.719-0.705,1.449-1.021,2.185c8.723-5.669,18.722-9.028,28.979-10.61c0.222-0.034,0.317,0.305,0.094,0.339
				c-2.874,0.443-5.727,1.011-8.542,1.741c-7.378,1.914-14.448,4.948-20.786,9.135c-3.573,8.752-3.834,18.625-5.465,28.022
				c-2.766,15.938-9.76,31.122-20.075,43.582c-1.804,2.179-3.719,4.295-5.679,6.387c0.239,3.518,0.61,7.016,1.104,10.47
				c1.789,12.521,5.46,24.591,9.875,36.42c2.767,7.413,5.8,14.722,8.796,22.044c2.689,6.572,5.404,13.102,6.948,20.057
				c2.518,11.334,2.223,23.363-2.446,34.118c-2.418,5.571-5.924,10.62-10.168,14.954c-4.445,4.539-9.722,8.116-14.89,11.767
				c-1.154,0.815-2.311,1.635-3.457,2.47c-6.472,12.718-15.872,24.684-12.742,38.128c2.756,11.835,14.405,19.21,25.515,24.131
				c54.074,23.949,117.441,19.507,173.182-0.253c11.528-4.087,23.538-9.358,30.207-19.61c4.286-6.589,5.735-14.237,5.423-22.09
				C251.457,306.106,238.23,302.871,225.957,297.197z"/>
		</g>
		<g>
			<g>
				<path style="fill:#F39860;" d="M259.321,345.509c0-13.943-6.762-26.136-18.475-34.846c-9.095-6.763-19.941-11.258-30.776-15.108
					c-13.179-4.684-30.143-6.662-38.947-17.937c-7.144-9.15-8.294-21.329-8.515-32.147c-0.161-7.889,0.283-15.857,1.457-23.678
					h-54.912c1.173,7.821,1.618,15.789,1.457,23.678c-0.221,10.817-1.371,22.997-8.515,32.147
					c-8.803,11.275-25.768,13.253-38.947,17.937c-10.835,3.851-21.681,8.345-30.776,15.108
					c-11.713,8.71-18.475,20.904-18.475,34.846c0,0,35.519,46.571,126.953,44.419C230.787,387.811,259.321,345.509,259.321,345.509z
					"/>
			</g>
			<path style="fill:#F39860;" d="M136.58,252.197c0,0,11.989-1.398,25.999-10.202c0.016-6.748,0.485-13.529,1.486-20.203h-54.912
				c1.004,6.695,1.473,13.497,1.487,20.265c13.968,8.75,25.902,10.14,25.902,10.14H136.58z"/>
			<path style="fill:#BE1E2D;" d="M32.372,310.662c-11.713,8.71-18.475,20.904-18.475,34.846c0,0,35.519,46.571,126.953,44.419
				c89.937-2.116,118.472-44.419,118.472-44.419c0-13.943-6.762-26.136-18.475-34.846c-9.095-6.763-19.941-11.258-30.776-15.108
				c-5.975-2.123-12.726-3.693-19.144-5.822c-19.376,30.048-54.124,57.716-54.124,57.716h-0.386c0,0-34.748-27.667-54.124-57.716
				c-6.417,2.13-13.169,3.699-19.143,5.822C52.312,299.405,41.467,303.899,32.372,310.662z"/>
			<path style="opacity:0.6;fill:#BE1E2D;" d="M254.127,351.487c0.167-0.168,0.33-0.333,0.488-0.496
				c0.031-0.031,0.061-0.062,0.091-0.094c0.149-0.153,0.294-0.304,0.435-0.452c0.014-0.014,0.028-0.029,0.042-0.043
				c0.15-0.157,0.294-0.311,0.436-0.462c0.03-0.032,0.059-0.063,0.088-0.094c0.139-0.15,0.275-0.297,0.406-0.44
				c0.01-0.011,0.02-0.022,0.03-0.033c0.124-0.136,0.243-0.268,0.36-0.398c0.023-0.026,0.047-0.052,0.069-0.077
				c0.119-0.133,0.234-0.263,0.344-0.389c0.021-0.024,0.041-0.047,0.061-0.07c0.104-0.118,0.204-0.234,0.3-0.347
				c0.01-0.011,0.02-0.023,0.03-0.035c0.102-0.119,0.2-0.234,0.294-0.346c0.02-0.024,0.04-0.047,0.06-0.071
				c0.092-0.109,0.181-0.216,0.265-0.318c0.007-0.008,0.012-0.015,0.019-0.023c0.08-0.097,0.156-0.19,0.228-0.28
				c0.015-0.018,0.03-0.037,0.044-0.055c0.074-0.092,0.145-0.18,0.211-0.264c0.011-0.014,0.021-0.027,0.032-0.04
				c0.061-0.077,0.118-0.151,0.172-0.221c0.008-0.01,0.015-0.02,0.023-0.029c0.057-0.074,0.11-0.144,0.16-0.209
				c0.011-0.014,0.021-0.027,0.031-0.041c0.048-0.063,0.093-0.124,0.134-0.178c0.001-0.002,0.002-0.003,0.003-0.005
				c0.04-0.054,0.076-0.103,0.109-0.147c0.007-0.01,0.014-0.02,0.021-0.029c0.03-0.042,0.058-0.08,0.081-0.113
				c0.005-0.007,0.009-0.013,0.014-0.02c0.02-0.027,0.037-0.052,0.051-0.072c0.003-0.005,0.007-0.01,0.01-0.014
				c0.015-0.022,0.026-0.038,0.035-0.05c0.004-0.006,0.005-0.008,0.008-0.011c0.005-0.007,0.008-0.012,0.008-0.012
				c0-0.4-0.007-0.799-0.018-1.196c-0.003-0.125-0.009-0.25-0.014-0.375c-0.01-0.275-0.022-0.549-0.038-0.823
				c-0.008-0.142-0.017-0.283-0.026-0.424c-0.018-0.265-0.038-0.53-0.061-0.794c-0.011-0.133-0.022-0.265-0.035-0.397
				c-0.03-0.317-0.065-0.633-0.102-0.947c-0.009-0.073-0.016-0.147-0.025-0.221c-0.048-0.385-0.101-0.768-0.16-1.149
				c-0.017-0.111-0.036-0.221-0.054-0.332c-0.044-0.273-0.09-0.546-0.14-0.817c-0.025-0.138-0.052-0.275-0.078-0.413
				c-0.048-0.249-0.099-0.497-0.151-0.745c-0.029-0.137-0.058-0.274-0.089-0.41c-0.06-0.269-0.124-0.538-0.19-0.805
				c-0.026-0.107-0.051-0.214-0.078-0.32c-0.093-0.367-0.191-0.732-0.294-1.096c-0.026-0.092-0.055-0.184-0.082-0.276
				c-0.08-0.275-0.162-0.549-0.248-0.821c-0.042-0.135-0.087-0.268-0.13-0.402c-0.076-0.233-0.154-0.465-0.234-0.696
				c-0.048-0.139-0.097-0.278-0.146-0.416c-0.085-0.237-0.173-0.472-0.262-0.707c-0.047-0.124-0.093-0.248-0.141-0.371
				c-0.136-0.347-0.275-0.692-0.421-1.035c-0.027-0.063-0.056-0.126-0.083-0.189c-0.123-0.286-0.249-0.571-0.378-0.854
				c-0.06-0.131-0.122-0.26-0.183-0.39c-0.102-0.216-0.205-0.432-0.311-0.647c-0.069-0.14-0.138-0.279-0.208-0.418
				c-0.106-0.21-0.215-0.419-0.325-0.628c-0.07-0.132-0.139-0.265-0.21-0.397c-0.134-0.248-0.272-0.494-0.411-0.74
				c-0.05-0.087-0.097-0.176-0.148-0.263c-0.184-0.32-0.374-0.637-0.567-0.953c-0.076-0.124-0.155-0.247-0.232-0.37
				c-0.127-0.203-0.255-0.405-0.385-0.606c-0.089-0.137-0.179-0.272-0.269-0.408c-0.126-0.189-0.254-0.378-0.384-0.566
				c-0.092-0.134-0.185-0.268-0.279-0.402c-0.143-0.203-0.289-0.404-0.436-0.604c-0.082-0.113-0.163-0.226-0.247-0.339
				c-0.222-0.297-0.448-0.593-0.678-0.886c-0.088-0.112-0.179-0.223-0.269-0.335c-0.154-0.193-0.309-0.386-0.467-0.577
				c-0.108-0.13-0.217-0.259-0.327-0.389c-0.146-0.173-0.294-0.345-0.443-0.516c-0.113-0.13-0.227-0.26-0.341-0.389
				c-0.157-0.177-0.317-0.352-0.477-0.526c-0.108-0.118-0.215-0.236-0.324-0.353c-0.258-0.275-0.519-0.549-0.785-0.82
				c-1.846-1.881-3.88-3.649-6.09-5.293c-7.158-5.323-15.401-9.237-23.869-12.542c0.642,1.294,0.974,2.727,0.826,4.292
				c-0.198,2.082-1.028,4.023-2.7,5.331c-1.756,1.374-3.982,1.989-6.087,2.602c-1.09,0.317-2.186,0.628-3.244,1.042
				c-1.108,0.433-2.181,0.988-3.217,1.572c-2.183,1.23-4.208,2.73-6.033,4.445c-3.638,3.419-6.463,7.66-8.389,12.258
				c-1.93,4.608-2.984,9.585-3.094,14.578c-0.054,2.476,0.122,4.959,0.55,7.399c0.217,1.238,0.479,2.473,0.889,3.662
				c0.472,1.368,1.083,2.684,1.73,3.977c1.329,2.655,2.838,5.223,4.011,7.955c1.027,2.392,1.833,4.98,1.63,7.614
				c-0.063,0.815-0.221,1.598-0.451,2.353c-0.322,0.118-0.643,0.238-0.965,0.353c-11.58,4.138-23.748,6.505-36,7.418
				c-12.336,0.92-24.761,0.379-37.013-1.274c-12.373-1.67-24.531-4.536-36.463-8.189c-11.839-3.625-23.482-8.152-34.196-14.41
				c-5.228-3.053-10.22-6.521-14.831-10.448c-4.821-4.106-9.468-8.702-13.457-13.625c-1.47-1.814-2.882-3.75-4.032-5.808
				c-1.667,4.484-2.547,9.273-2.547,14.291c0,0,35.519,46.571,126.953,44.419c18.258-0.43,33.985-2.515,47.456-5.567l0,0
				c0,0,0,0,0.001,0c0.743-0.168,1.477-0.341,2.206-0.515c0.15-0.036,0.3-0.071,0.449-0.107c0.711-0.172,1.417-0.345,2.115-0.522
				c0.098-0.025,0.195-0.05,0.292-0.075c0.645-0.164,1.284-0.331,1.918-0.5c0.114-0.03,0.23-0.061,0.344-0.091
				c0.681-0.183,1.356-0.368,2.025-0.556c0.133-0.037,0.265-0.075,0.398-0.112c0.66-0.187,1.316-0.375,1.963-0.566
				c0.024-0.007,0.049-0.014,0.073-0.021c0.666-0.197,1.324-0.397,1.977-0.598c0.133-0.041,0.266-0.082,0.399-0.123
				c0.641-0.199,1.278-0.401,1.906-0.604c0.076-0.025,0.152-0.05,0.228-0.075c0.583-0.19,1.16-0.381,1.733-0.574
				c0.108-0.036,0.216-0.073,0.324-0.109c0.609-0.207,1.212-0.415,1.809-0.626c0.116-0.041,0.232-0.082,0.348-0.123
				c0.576-0.204,1.148-0.41,1.712-0.617c0.039-0.014,0.078-0.028,0.117-0.043c0.592-0.218,1.176-0.438,1.756-0.659
				c0.119-0.045,0.238-0.091,0.356-0.136c0.573-0.22,1.142-0.442,1.703-0.665c0.054-0.021,0.107-0.043,0.161-0.065
				c0.528-0.211,1.05-0.423,1.567-0.636c0.098-0.04,0.198-0.081,0.296-0.122c0.542-0.225,1.078-0.45,1.609-0.677
				c0.097-0.041,0.192-0.083,0.289-0.124c0.504-0.217,1.003-0.434,1.496-0.653c0.046-0.021,0.093-0.041,0.139-0.061
				c0.522-0.232,1.036-0.465,1.545-0.699c0.105-0.048,0.21-0.096,0.315-0.145c0.508-0.234,1.012-0.47,1.508-0.706
				c0.033-0.016,0.066-0.032,0.099-0.048c0.475-0.226,0.943-0.453,1.407-0.681c0.089-0.044,0.179-0.087,0.268-0.131
				c0.477-0.235,0.948-0.471,1.413-0.707c0.08-0.041,0.159-0.081,0.238-0.122c0.436-0.223,0.868-0.446,1.295-0.669
				c0.05-0.026,0.101-0.052,0.151-0.079c0.455-0.239,0.903-0.478,1.346-0.718c0.091-0.049,0.181-0.098,0.271-0.147
				c0.445-0.241,0.885-0.483,1.318-0.725c0.017-0.01,0.034-0.02,0.052-0.029c0.421-0.236,0.836-0.471,1.247-0.707
				c0.08-0.046,0.161-0.092,0.24-0.138c0.413-0.238,0.822-0.477,1.224-0.715c0.065-0.039,0.13-0.077,0.195-0.116
				c0.374-0.222,0.744-0.444,1.108-0.666c0.051-0.031,0.102-0.062,0.153-0.092c0.391-0.238,0.775-0.477,1.155-0.715
				c0.077-0.048,0.154-0.097,0.231-0.145c0.769-0.484,1.516-0.966,2.24-1.445c0.07-0.046,0.14-0.093,0.209-0.139
				c0.353-0.235,0.702-0.469,1.045-0.702c0.051-0.035,0.102-0.07,0.153-0.105c0.318-0.217,0.632-0.434,0.941-0.65
				c0.047-0.033,0.095-0.066,0.142-0.099c0.331-0.232,0.656-0.463,0.977-0.693c0.064-0.046,0.127-0.091,0.19-0.137
				c0.649-0.467,1.276-0.93,1.883-1.388c0.06-0.045,0.12-0.091,0.18-0.136c0.295-0.224,0.586-0.446,0.871-0.667
				c0.04-0.031,0.078-0.061,0.118-0.092c0.265-0.206,0.525-0.41,0.781-0.613c0.043-0.034,0.086-0.068,0.128-0.101
				c0.274-0.218,0.542-0.434,0.806-0.649c0.051-0.042,0.101-0.083,0.152-0.124c0.262-0.214,0.52-0.426,0.772-0.636
				c0.006-0.005,0.012-0.01,0.018-0.015c0.257-0.214,0.507-0.426,0.754-0.637c0.05-0.043,0.1-0.085,0.149-0.127
				c0.241-0.206,0.477-0.411,0.708-0.613c0.028-0.025,0.056-0.049,0.084-0.074c0.214-0.188,0.423-0.373,0.629-0.557
				c0.038-0.034,0.077-0.069,0.115-0.103c0.218-0.196,0.432-0.389,0.641-0.581c0.041-0.038,0.081-0.075,0.122-0.112
				c0.201-0.185,0.4-0.369,0.592-0.549c0.012-0.011,0.025-0.023,0.037-0.034c0.201-0.189,0.396-0.375,0.588-0.559
				c0.04-0.039,0.08-0.077,0.12-0.115c0.188-0.181,0.373-0.36,0.552-0.536c0.019-0.018,0.036-0.036,0.055-0.054
				c0.168-0.165,0.331-0.328,0.492-0.488C254.066,351.548,254.097,351.517,254.127,351.487z"/>
		</g>
		<g>
			<path style="fill:#F39860;" d="M206.377,126.819c0,99.852-69.38,107.933-69.38,107.933h-0.038c0,0-69.38-8.081-69.38-107.933
				c0,0-2.045-76.09,71.218-76.09S206.377,126.819,206.377,126.819z"/>
			<g>
				<g>
					<g>
						<path style="fill:#F39860;" d="M78.657,165.73c-0.077-0.463-3.855-18.808-14.098-17.805c-3.947,0.387-5.499,4.031-5.939,7.578
							c-0.643,5.187,0.232,11.102,1.981,16.017c1.612,4.53,4.409,8.721,8.667,11.13c2.363,1.337,7.627,3.91,9.743,0.85
							c0.761-1.101,0.743-2.608,0.585-3.878C78.279,169.011,78.657,165.73,78.657,165.73z"/>
						<path style="fill:#F39860;" d="M68.136,175.409c0,0-5.177-1.023-7.208-8.469c-2.031-7.445,0.261-15.824,4.377-15.022
							c4.116,0.803,9.377,13.363,9.377,13.363s-5.092,1.276-2.259,6.292c0,0-7.09-2.391-6.271-6.708
							c0.819-4.317,5.225-3.76,5.225-3.76s-5.027-8.765-7.935-6.976C60.532,155.918,61.196,172.828,68.136,175.409z"/>
					</g>
				</g>
				<g>
					<g>
						<path style="fill:#F39860;" d="M195.396,165.73c0.077-0.463,3.855-18.808,14.098-17.805c3.947,0.387,5.499,4.031,5.939,7.578
							c0.643,5.187-0.232,11.102-1.981,16.017c-1.613,4.53-4.409,8.721-8.667,11.13c-2.363,1.337-7.627,3.91-9.743,0.85
							c-0.762-1.101-0.743-2.608-0.585-3.878C195.774,169.011,195.396,165.73,195.396,165.73z"/>
						<path style="fill:#F39860;" d="M205.917,175.409c0,0,5.177-1.023,7.208-8.469c2.031-7.445-0.261-15.824-4.377-15.022
							c-4.116,0.803-9.377,13.363-9.377,13.363s5.092,1.276,2.259,6.292c0,0,7.09-2.391,6.271-6.708
							c-0.819-4.317-5.224-3.76-5.224-3.76s5.027-8.765,7.935-6.976C213.521,155.918,212.857,172.828,205.917,175.409z"/>
					</g>
				</g>
			</g>
			<g>
				<g>
					<g>
						<g>
							<path style="fill:#FFFFFF;" d="M86.174,143.387l0.332,2.918c0,0,2.324,8.588,13.055,10.58s19.634-3.722,19.634-3.722
								s-3.37-15.53-16.757-15.972C89.05,136.749,86.174,143.387,86.174,143.387z"/>
							<g>
								<circle style="fill:#006F92;" cx="104.17" cy="147.507" r="9.536"/>
								<path style="fill:#241F20;" d="M98.702,147.507c0,3.02,2.448,5.468,5.468,5.468c3.02,0,5.468-2.448,5.468-5.468
									c0-3.02-2.448-5.468-5.468-5.468C101.15,142.04,98.702,144.488,98.702,147.507z"/>
								<path style="fill:#FFFFFF;" d="M105.663,145.562c0,1.9,1.54,3.44,3.44,3.44c1.9,0,3.44-1.54,3.44-3.44
									c0-1.9-1.54-3.44-3.44-3.44C107.203,142.122,105.663,143.662,105.663,145.562z"/>
							</g>
							<path style="fill:#231F20;" d="M119.899,153.222c0,0-5.871-29.596-35.347-11.982c0,0-2.573,0.768-3.714-1.318
								c0,0-0.139,2.452,1.05,3.32c0,0-2.195,0.091-2.743-1.692c0,0-0.366,5.761,7.361,4.755c0,0,3.338-8.387,14.219-8.275
								c13.304,0.137,18.471,15.133,18.471,15.133L119.899,153.222z"/>
							<path style="fill:#231F20;" d="M88.196,136.598c8.68-4.826,20.622-5.778,27.268,2.857c0.892,1.116,1.587,2.366,2.188,3.657
								c0.033,0.069,0.003,0.152-0.066,0.185c-0.065,0.031-0.139,0.007-0.177-0.051c-0.815-1.126-1.588-2.29-2.521-3.319
								C107.979,131.519,97.132,132.554,88.196,136.598L88.196,136.598z"/>
						</g>
						<path style="fill:#3A3F4F;" d="M78.473,130.983c0,0,8.965-7.563,25.608-2.479c16.643,5.084,18.345,6.202,20.177,3.117
							c1.832-3.086-9.6-10.985-24.872-10.587S78.473,130.983,78.473,130.983z"/>
					</g>
					<g>
						<g>
							<path style="fill:#FFFFFF;" d="M187.879,143.387l-0.332,2.918c0,0-2.324,8.588-13.055,10.58
								c-10.732,1.992-19.634-3.722-19.634-3.722s3.37-15.53,16.757-15.972S187.879,143.387,187.879,143.387z"/>
							<g>
								<circle style="fill:#006F92;" cx="169.883" cy="147.507" r="9.536"/>
								
									<ellipse transform="matrix(0.1581 -0.9874 0.9874 0.1581 -2.625 291.9359)" style="fill:#241F20;" cx="169.883" cy="147.507" rx="5.468" ry="5.468"/>
								<path style="fill:#FFFFFF;" d="M168.39,145.562c0,1.9-1.54,3.44-3.44,3.44c-1.9,0-3.44-1.54-3.44-3.44
									c0-1.9,1.54-3.44,3.44-3.44C166.85,142.122,168.39,143.662,168.39,145.562z"/>
							</g>
							<path style="fill:#231F20;" d="M154.154,153.222c0,0,5.871-29.596,35.347-11.982c0,0,2.573,0.768,3.714-1.318
								c0,0,0.139,2.452-1.05,3.32c0,0,2.195,0.091,2.743-1.692c0,0,0.366,5.761-7.361,4.755c0,0-3.338-8.387-14.219-8.275
								c-13.304,0.137-18.471,15.133-18.471,15.133L154.154,153.222z"/>
							<path style="fill:#231F20;" d="M185.857,136.598c-8.68-4.826-20.622-5.778-27.268,2.857
								c-0.892,1.116-1.587,2.366-2.188,3.657c-0.033,0.069-0.003,0.152,0.066,0.185c0.065,0.031,0.14,0.007,0.177-0.051
								c0.815-1.126,1.588-2.29,2.521-3.319C166.075,131.519,176.922,132.554,185.857,136.598L185.857,136.598z"/>
						</g>
						<path style="fill:#3A3F4F;" d="M195.58,130.983c0,0-8.965-7.563-25.608-2.479s-18.346,6.202-20.178,3.117
							c-1.832-3.086,9.6-10.985,24.872-10.587S195.58,130.983,195.58,130.983z"/>
					</g>
				</g>
				<g>
					<path style="fill:#C63E48;" d="M156.852,200.067c0,0-5.035-0.768-8.285-3.132c-3.237-2.354-7.558-5.928-11.582-2.307
						c-4.024-3.621-8.261-0.048-11.498,2.307c-3.25,2.364-8.285,3.132-8.285,3.132s5.582,10.889,19.315,10.159h0.92
						c13.279,0.706,18.937-9.451,19.296-10.123C156.811,200.08,156.852,200.067,156.852,200.067z"/>
					<path style="opacity:0.3;fill:#C63E48;" d="M156.5,200.112c-0.653,0.216-1.317,0.409-1.996,0.522
						c-0.771,0.129-1.553,0.2-2.333,0.263c-1.462,0.118-2.931,0.174-4.397,0.109c-2.846-0.126-5.752-0.726-8.143-2.341
						c-0.757,0.832-1.764,1.457-2.934,1.338c-0.528-0.054-1.066-0.248-1.53-0.5c-0.333-0.181-0.675-0.432-0.86-0.771
						c-0.122,0.154-0.299,0.282-0.436,0.378c-0.441,0.308-0.936,0.542-1.426,0.76c-2.544,1.128-5.346,1.297-8.094,1.178
						c-1.658-0.072-3.324-0.194-4.946-0.561c-0.478-0.108-0.964-0.171-1.44-0.288c-0.17-0.042-0.378-0.09-0.575-0.163
						c-0.12,0.021-0.188,0.031-0.188,0.031s5.582,10.889,19.315,10.159h0.92c13.279,0.706,18.937-9.451,19.296-10.123
						c0.078-0.023,0.12-0.036,0.12-0.036s-0.054-0.008-0.15-0.025C156.634,200.065,156.567,200.089,156.5,200.112z M141.333,205.792
						c-0.829,0.989-2.28,1.297-3.507,1.358c-1.298,0.064-2.737-0.123-3.881-0.778c-0.604-0.346-1.116-0.892-1.253-1.595
						c-0.165-0.846,0.22-1.695,0.829-2.273c0.773-0.734,1.915-0.994,2.949-1.071c1.048-0.077,2.099,0.068,3.123,0.293
						c0.036-0.024,0.082-0.033,0.137-0.016c0.92,0.288,1.828,0.899,2.104,1.872C142.048,204.341,141.834,205.194,141.333,205.792z"
						/>
					<path style="fill:#3A3F4F;" d="M156.832,200.001c-1.418,0.39-2.878,0.64-4.338,0.816c-4.322,0.492-8.939,0.139-12.762-2.083
						c0.284-0.524,0.461-1.099,0.525-1.682c0.012-0.085-0.122-0.106-0.137-0.022c-0.178,0.788-0.52,1.556-1.057,2.158
						c-1.046,1.236-3.109,1.234-4.16,0.003c-0.111-0.126-0.213-0.261-0.308-0.4c-0.006-0.011-0.013-0.02-0.021-0.03
						c-0.347-0.517-0.589-1.113-0.725-1.731c-0.008-0.034-0.04-0.059-0.076-0.055c-0.038,0.004-0.066,0.039-0.061,0.077
						c0.068,0.596,0.252,1.184,0.548,1.716c-5.135,2.9-11.474,2.643-17.038,1.234c-0.037-0.012-0.076,0.009-0.088,0.046
						c-0.011,0.037,0.009,0.076,0.046,0.087c1.422,0.434,2.877,0.733,4.348,0.93c4.355,0.577,9.069,0.317,12.917-1.992
						c0.072,0.107,0.147,0.213,0.229,0.314c1.118,1.43,3.506,1.433,4.623,0.003c0.091-0.112,0.173-0.23,0.252-0.349
						c5.156,3.063,11.739,2.68,17.323,1.094c0.036-0.011,0.057-0.049,0.047-0.085C156.91,200.01,156.869,199.989,156.832,200.001z"
						/>
				</g>
				<g>
					<path style="fill:#F39860;" d="M137.032,170.041L137.032,170.041c-0.002,0-0.004,0-0.005,0c-0.002,0-0.004,0-0.005,0v0
						c-4.624,0.007-13.185,4.266-10.26,9.86c2.717,5.196,9.279,6.541,10.208,6.708v0.02c0,0,0.023-0.004,0.057-0.01
						c0.034,0.006,0.057,0.01,0.057,0.01v-0.02c0.929-0.166,7.491-1.512,10.208-6.708
						C150.217,174.307,141.656,170.048,137.032,170.041z"/>
					<path style="opacity:0.7;fill:#F39860;" d="M145.689,173.448c0.195,1.166-0.166,2.322-0.842,3.334
						c-1.206,1.803-3.458,2.67-5.53,2.93c-2.175,0.273-4.445-0.063-6.411-1.043c-1.965-0.979-3.752-2.866-3.586-5.203
						c0.02-0.282,0.066-0.576,0.132-0.87c-2.582,1.78-4.233,4.356-2.691,7.305c2.717,5.196,9.28,6.541,10.208,6.708l0,0.02
						c0,0,0.023-0.004,0.057-0.01c0.034,0.006,0.057,0.01,0.057,0.01l0-0.02c0.929-0.166,7.491-1.512,10.208-6.708
						C148.603,177.393,147.604,175.156,145.689,173.448z"/>
					<g>
						<path style="fill:#754C29;" d="M133.384,182.461c0,0-2.941-3.486-4.14-1.798C128.046,182.352,133.384,182.461,133.384,182.461
							z"/>
						<path style="fill:#754C29;" d="M140.669,182.461c0,0,2.941-3.486,4.14-1.798C146.007,182.352,140.669,182.461,140.669,182.461
							z"/>
					</g>
				</g>
			</g>
			<g>
				<radialGradient id="SVGID_1_" cx="97.8427" cy="167.4204" r="22.1085" gradientUnits="userSpaceOnUse">
					<stop  offset="1.799800e-04" style="stop-color:#DF7469"/>
					<stop  offset="1" style="stop-color:#FFFFFF"/>
				</radialGradient>
				<circle style="opacity:0.3;fill:url(#SVGID_1_);" cx="97.843" cy="167.42" r="22.108"/>
				
					<radialGradient id="SVGID_00000075877393601535712250000005123846733841703090_" cx="176.2104" cy="167.4204" r="22.1085" gradientUnits="userSpaceOnUse">
					<stop  offset="1.799800e-04" style="stop-color:#DF7469"/>
					<stop  offset="1" style="stop-color:#FFFFFF"/>
				</radialGradient>
				
					<circle style="opacity:0.3;fill:url(#SVGID_00000075877393601535712250000005123846733841703090_);" cx="176.21" cy="167.42" r="22.108"/>
				
					<radialGradient id="SVGID_00000031189434024504451210000014761730391748655265_" cx="137.03" cy="155.3396" r="30.7381" gradientUnits="userSpaceOnUse">
					<stop  offset="1.799800e-04" style="stop-color:#DF7469"/>
					<stop  offset="1" style="stop-color:#FFFFFF"/>
				</radialGradient>
				
					<circle style="opacity:0.2;fill:url(#SVGID_00000031189434024504451210000014761730391748655265_);" cx="137.03" cy="155.34" r="30.738"/>
				<g style="opacity:0.8;">
					<path style="fill:#F39860;" d="M130.138,170.938c0.027-0.301-0.269-0.543-0.564-0.603c-0.302-0.061-0.637,0.018-0.857,0.233
						c-0.22,0.215-0.304,0.57-0.172,0.849c0.156,0.329,0.587,0.48,0.93,0.358c0.343-0.121,0.578-0.474,0.604-0.837"/>
					<path style="fill:#F39860;" d="M131.881,171.256c-0.13-0.161-0.357-0.23-0.559-0.188c-0.202,0.042-0.377,0.187-0.474,0.369
						c-0.063,0.118-0.096,0.257-0.064,0.387c0.028,0.114,0.106,0.212,0.203,0.277c0.269,0.182,0.676,0.089,0.86-0.18
						s0.135-0.662-0.089-0.897"/>
					<path style="fill:#F39860;" d="M135.485,169.986c-0.151-0.041-0.311-0.076-0.463-0.038c-0.152,0.038-0.291,0.172-0.282,0.328
						c0.005,0.087,0.054,0.166,0.118,0.226c0.163,0.152,0.453,0.167,0.601,0c0.148-0.167,0.062-0.49-0.159-0.526"/>
					<path style="fill:#F39860;" d="M139.241,170.947c0.276-0.081,0.582-0.083,0.846,0.033c0.263,0.116,0.477,0.359,0.52,0.644
						c0.043,0.285-0.106,0.598-0.37,0.713c-0.11,0.048-0.232,0.061-0.352,0.055c-0.349-0.017-0.695-0.214-0.848-0.528
						c-0.153-0.314-0.076-0.736,0.205-0.944"/>
					<path style="fill:#F39860;" d="M145.076,164.828c-0.226-0.056-0.464-0.113-0.689-0.051c-0.225,0.061-0.423,0.285-0.37,0.512
						c0.052,0.222,0.313,0.335,0.54,0.317c0.191-0.016,0.384-0.111,0.473-0.28c0.089-0.169,0.04-0.412-0.13-0.499"/>
					<path style="fill:#F39860;" d="M140.191,162.046c-0.242-0.161-0.573-0.322-0.802-0.142c-0.056,0.044-0.097,0.104-0.123,0.17
						c-0.109,0.282,0.141,0.635,0.443,0.625c0.302-0.01,0.529-0.378,0.402-0.652"/>
					<path style="fill:#F39860;" d="M131.737,157.191c-0.198-0.176-0.489-0.242-0.744-0.169c-0.255,0.073-0.467,0.283-0.541,0.537
						c-0.028,0.096-0.038,0.201-0.009,0.297c0.025,0.082,0.076,0.154,0.136,0.215c0.283,0.287,0.798,0.319,1.092,0.042
						c0.293-0.277,0.273-0.826-0.059-1.054"/>
					<path style="fill:#F39860;" d="M134.051,159.988c-0.247-0.211-0.633-0.275-0.904-0.096c-0.271,0.179-0.347,0.619-0.109,0.841
						c0.064,0.059,0.143,0.101,0.227,0.127c0.264,0.083,0.579,0.003,0.754-0.211c0.176-0.214,0.186-0.555,0.005-0.766"/>
					<path style="fill:#F39860;" d="M136.199,165.049c0.22-0.051,0.465-0.048,0.656,0.074c0.191,0.122,0.299,0.386,0.194,0.586
						c-0.081,0.154-0.262,0.232-0.435,0.254c-0.234,0.03-0.496-0.033-0.64-0.22c-0.144-0.187-0.107-0.508,0.107-0.608"/>
					<path style="fill:#F39860;" d="M136.355,166.56c0.159,0.155,0.083,0.471-0.128,0.538c-0.211,0.067-0.454-0.149-0.414-0.367
						c0.041-0.218,0.346-0.33,0.518-0.192"/>
					<path style="fill:#F39860;" d="M128.525,165.69c-0.287-0.069-0.621-0.128-0.85,0.058c-0.083,0.067-0.141,0.161-0.174,0.262
						c-0.105,0.319,0.077,0.704,0.389,0.827c0.313,0.123,0.708-0.036,0.848-0.341c0.141-0.305,0.005-0.708-0.291-0.866"/>
					<path style="fill:#F39860;" d="M125.444,166.177c-0.207-0.062-0.446-0.047-0.618,0.084c-0.172,0.131-0.247,0.392-0.132,0.575
						c0.053,0.085,0.14,0.146,0.233,0.185c0.229,0.098,0.531,0.062,0.679-0.139c0.148-0.2,0.044-0.553-0.203-0.587"/>
					<path style="fill:#F39860;" d="M125.501,163.497c0.225-0.175,0.613,0.003,0.638,0.287c0.025,0.284-0.307,0.528-0.575,0.429
						c-0.267-0.099-0.367-0.485-0.19-0.708"/>
					<path style="fill:#F39860;" d="M118.269,168.202c-0.313-0.134-0.746-0.115-0.914,0.181c-0.149,0.263,0.026,0.636,0.314,0.728
						c0.288,0.092,0.621-0.074,0.763-0.341c0.087-0.165,0.109-0.371,0.03-0.54c-0.079-0.17-0.267-0.29-0.452-0.263"/>
					<path style="fill:#F39860;" d="M140.824,166.469c-0.087-0.145-0.293-0.204-0.441-0.123c-0.148,0.08-0.211,0.288-0.13,0.435
						c0.082,0.147,0.296,0.202,0.437,0.11c0.141-0.092,0.175-0.314,0.066-0.442"/>
					<path style="fill:#F39860;" d="M138.137,167.536c-0.268-0.087-0.59,0.049-0.715,0.302c-0.025,0.05-0.043,0.105-0.044,0.161
						c-0.002,0.07,0.022,0.138,0.059,0.197c0.144,0.226,0.503,0.272,0.699,0.089c0.196-0.183,0.174-0.545-0.043-0.703"/>
					<path style="fill:#F39860;" d="M132.327,164.454c-0.199,0.141-0.484,0.182-0.686,0.045c-0.202-0.136-0.256-0.47-0.071-0.628
						c0.072-0.061,0.166-0.09,0.26-0.103c0.176-0.023,0.372,0.016,0.49,0.149c0.118,0.133,0.12,0.37-0.026,0.471"/>
					<path style="fill:#F39860;" d="M152.878,168.04c-0.172-0.209-0.574-0.12-0.64,0.142c-0.066,0.262,0.251,0.531,0.498,0.421
						c0.247-0.11,0.255-0.529,0.013-0.647"/>
					<path style="fill:#F39860;" d="M159.384,173.971c0.333-0.263,0.913,0.035,0.914,0.459c0.001,0.424-0.544,0.729-0.916,0.525
						c-0.372-0.204-0.425-0.798-0.109-1.082"/>
					<path style="fill:#F39860;" d="M163.654,174.524c0.305,0.181,0.298,0.706-0.011,0.879c-0.309,0.173-0.76-0.095-0.756-0.449
						C162.892,174.6,163.35,174.343,163.654,174.524"/>
					<path style="fill:#F39860;" d="M166.557,173.713c-0.242-0.126-0.571,0.153-0.492,0.414c0.079,0.261,0.499,0.315,0.647,0.086
						c0.148-0.229-0.065-0.586-0.337-0.571"/>
					<path style="fill:#F39860;" d="M175.096,168.789c0.193-0.034,0.408-0.064,0.573,0.043c0.282,0.182,0.191,0.67-0.105,0.829
						c-0.283,0.152-0.693,0.025-0.805-0.276c-0.112-0.301,0.16-0.685,0.478-0.645"/>
					<path style="fill:#F39860;" d="M173.261,176.898c-0.307-0.318-0.869-0.353-1.196-0.056c-0.327,0.297-0.333,0.885,0.003,1.171
						c0.336,0.286,0.938,0.165,1.117-0.238c0.153-0.346,0.001-0.743-0.158-1.086"/>
					<path style="fill:#F39860;" d="M181.724,173.017c-0.406-0.385-1.139-0.336-1.491,0.098c-0.353,0.434-0.253,1.159,0.203,1.484
						c0.456,0.324,1.171,0.184,1.472-0.288c0.301-0.471,0.129-1.178-0.353-1.461"/>
					<path style="fill:#F39860;" d="M182.043,177.041c-0.185-0.408-0.884-0.407-1.069,0.001c-0.185,0.408,0.271,0.934,0.701,0.809
						c0.43-0.125,0.535-0.812,0.161-1.06"/>
					<path style="fill:#F39860;" d="M178.724,181.372c0.065-0.484,0.674-0.803,1.109-0.581c0.435,0.222,0.534,0.902,0.181,1.239
						c-0.067,0.064-0.146,0.116-0.23,0.156c-0.3,0.144-0.675,0.133-0.956-0.046c-0.281-0.179-0.451-0.526-0.4-0.855"/>
					<path style="fill:#F39860;" d="M187.13,182.725c-0.326-0.148-0.733-0.204-1.024,0.004c-0.298,0.213-0.362,0.686-0.132,0.971
						c0.23,0.284,0.707,0.32,0.977,0.073c0.27-0.247,0.277-0.725,0.015-0.98"/>
					<path style="fill:#F39860;" d="M184.706,182.657c-0.179-0.22-0.609-0.066-0.619,0.217c-0.01,0.283,0.387,0.473,0.609,0.298
						c0.222-0.176,0.145-0.591-0.122-0.687"/>
					<path style="fill:#F39860;" d="M184.622,184.441c0.192-0.142,0.494-0.12,0.648,0.063c0.153,0.183,0.108,0.504-0.101,0.62
						c-0.209,0.116-0.519-0.037-0.535-0.275c-0.015-0.214,0.168-0.383,0.334-0.518"/>
					<path style="fill:#F39860;" d="M187.459,177.779c-0.318-0.132-0.725-0.015-0.912,0.274c-0.187,0.289-0.118,0.72,0.159,0.925
						c0.277,0.205,0.721,0.136,0.911-0.151c0.19-0.287,0.068-0.735-0.247-0.874"/>
					<path style="fill:#F39860;" d="M184.982,175.32c0.213-0.205,0.63-0.1,0.722,0.181c0.051,0.159,0.005,0.342-0.107,0.465
						c-0.186,0.206-0.544,0.22-0.746,0.03c-0.202-0.19-0.208-0.549-0.014-0.746"/>
					<path style="fill:#F39860;" d="M188.153,167.214c-0.217-0.057-0.465,0.024-0.605,0.2c-0.14,0.175-0.166,0.435-0.062,0.634
						c0.239,0.191,0.638,0.125,0.804-0.132c0.166-0.257,0.061-0.647-0.212-0.787"/>
					<path style="fill:#F39860;" d="M109.02,173.686c0.096,0.209-0.074,0.489-0.303,0.502c-0.23,0.012-0.428-0.248-0.355-0.466
						c0.073-0.218,0.388-0.307,0.564-0.159"/>
					<path style="fill:#F39860;" d="M105.645,176.147c-0.229-0.168-0.615,0.039-0.601,0.323c0.013,0.283,0.418,0.453,0.629,0.264
						c0.174-0.212,0.109-0.573-0.128-0.711"/>
					<path style="fill:#F39860;" d="M98.09,177.012c0.205-0.193,0.452-0.357,0.731-0.395c0.279-0.037,0.592,0.082,0.716,0.335
						c0.144,0.292-0.029,0.68-0.328,0.811c-0.299,0.13-0.67,0.021-0.889-0.22c-0.219-0.241-0.297-0.589-0.255-0.912"/>
					<path style="fill:#F39860;" d="M96.842,167.69c0.267,0.111,0.345,0.517,0.138,0.719c-0.206,0.202-0.611,0.114-0.716-0.155
						c-0.104-0.269,0.135-0.607,0.424-0.597"/>
					<path style="fill:#F39860;" d="M93.044,178.333c-0.229-0.079-0.483-0.126-0.714-0.051c-0.231,0.075-0.425,0.302-0.394,0.543
						c0.014,0.106,0.069,0.205,0.146,0.28c0.247,0.244,0.719,0.186,0.9-0.11c0.181-0.296,0.018-0.742-0.312-0.851"/>
					<path style="fill:#F39860;" d="M90.934,173.667c-0.37,0.234-0.898,0.175-1.208-0.134c-0.102-0.102-0.182-0.23-0.206-0.373
						c-0.067-0.404,0.398-0.763,0.797-0.668c0.399,0.094,0.656,0.526,0.643,0.936c-0.086,0.005-0.172,0.01-0.258,0.015"/>
					<path style="fill:#F39860;" d="M85.181,174.912c-0.193-0.017-0.398,0.035-0.536,0.171c-0.138,0.136-0.191,0.362-0.098,0.532
						c0.142,0.258,0.585,0.235,0.724-0.025c0.139-0.26-0.051-0.622-0.339-0.686"/>
					<path style="fill:#F39860;" d="M87.742,177.797c-0.345-0.201-0.821-0.389-1.105-0.107c-0.209,0.207-0.164,0.578,0.025,0.803
						c0.249,0.296,0.759,0.365,1.022,0.082c0.263-0.283,0.063-0.861-0.323-0.854"/>
					<path style="fill:#F39860;" d="M90.046,176.745c-0.158-0.125-0.399-0.133-0.564-0.018c-0.165,0.115-0.242,0.343-0.18,0.535
						c0.096,0.295,0.526,0.414,0.757,0.207c0.231-0.207,0.154-0.653-0.135-0.766"/>
					<path style="fill:#F39860;" d="M90.227,181.161c-0.115,0.015-0.229-0.059-0.342-0.038c-0.122,0.022-0.199,0.145-0.23,0.264
						c-0.034,0.134-0.027,0.283,0.041,0.403c0.068,0.12,0.203,0.206,0.341,0.197c0.17-0.012,0.308-0.165,0.343-0.332
						c0.036-0.167-0.012-0.342-0.086-0.496"/>
					<path style="fill:#F39860;" d="M86.314,183.48c-0.232-0.084-0.52,0.052-0.602,0.285c-0.082,0.233,0.059,0.52,0.294,0.596
						c0.235,0.076,0.518-0.075,0.584-0.313c0.062-0.224-0.057-0.465-0.231-0.618"/>
					<path style="fill:#F39860;" d="M84.954,182.051c0.187,0.05,0.263,0.326,0.127,0.464c-0.135,0.138-0.413,0.069-0.467-0.117
						s0.143-0.393,0.331-0.349"/>
					<path style="fill:#F39860;" d="M81.39,176.252c-0.14-0.075-0.325-0.064-0.448,0.037c-0.123,0.101-0.171,0.287-0.102,0.43
						c0.069,0.143,0.254,0.222,0.402,0.163c0.218-0.086,0.258-0.4,0.14-0.602"/>
					<path style="fill:#F39860;" d="M97.165,168.39c-0.172-0.134-0.462-0.064-0.555,0.133c-0.015,0.033-0.026,0.068-0.025,0.104
						c0.001,0.058,0.031,0.112,0.071,0.154c0.114,0.12,0.326,0.138,0.446,0.024c0.12-0.114,0.1-0.346-0.047-0.422"/>
					<path style="fill:#F39860;" d="M82,168.305c-0.119-0.115-0.303-0.157-0.46-0.107c-0.157,0.05-0.282,0.192-0.312,0.354
						c-0.012,0.065-0.009,0.135,0.021,0.194c0.033,0.064,0.094,0.109,0.159,0.141c0.191,0.095,0.445,0.087,0.595-0.065
						c0.15-0.152,0.13-0.452-0.062-0.544"/>
					<path style="fill:#F39860;" d="M79.416,164.683c-0.069-0.149-0.33-0.125-0.383,0.03c-0.053,0.155,0.115,0.331,0.276,0.298
						c0.087-0.018,0.164-0.09,0.176-0.179c0.012-0.089-0.052-0.184-0.14-0.196"/>
					<path style="fill:#F39860;" d="M101.524,172.399c-0.094-0.049-0.224-0.01-0.274,0.083c-0.051,0.093-0.013,0.224,0.08,0.276
						c0.093,0.052,0.224,0.016,0.277-0.076c0.062-0.107,0.016-0.244-0.047-0.35"/>
					<path style="fill:#F39860;" d="M105.432,170.526c-0.187-0.167-0.518-0.127-0.66,0.078c-0.143,0.206-0.064,0.529,0.157,0.646
						c0.221,0.117,0.533,0,0.623-0.234c0.05-0.131,0.036-0.278-0.004-0.412"/>
					<path style="fill:#F39860;" d="M188.399,171.039c-0.281-0.093-0.612,0.184-0.57,0.478s0.438,0.465,0.682,0.297
						c0.243-0.169,0.221-0.6-0.039-0.742"/>
				</g>
			</g>
		</g>
		<g>
			<path style="fill:#3A3F4F;" d="M69.184,158.18c0,0-4.383-41.329,24.422-74.83c28.805-33.501,66.752-13.556,71.887-11.318
				c5.135,2.238,36.445,30.73,36.445,92.723c9.352-36.211,20.525-88.344-13.851-114.859c-19.818-15.285-48.442-21.119-72.74-15.292
				c-26.078,6.254-46.84,28.647-53.435,54.312c-2.646,10.297-3.217,21.043-2.23,31.608c0.578,6.186,1.687,12.317,3.202,18.34
				c0.83,3.298,1.784,6.565,2.843,9.797C66.596,151.311,69.184,155.467,69.184,158.18z"/>
			<path style="opacity:0.7;fill:#3A3F4F;" d="M69.184,158.18c0,0-4.383-41.329,24.422-74.83
				c28.805-33.501,66.752-13.556,71.887-11.318c5.135,2.238,36.445,30.73,36.445,92.723c9.352-36.211,20.525-88.344-13.851-114.859
				c-19.818-15.285-48.442-21.119-72.74-15.292c-26.078,6.254-46.84,28.647-53.435,54.312c-2.646,10.297-3.217,21.043-2.23,31.608
				c0.578,6.186,1.687,12.317,3.202,18.34c0.83,3.298,1.784,6.565,2.843,9.797C66.596,151.311,69.184,155.467,69.184,158.18z"/>
		</g>
		<g>
			<path style="fill:#3A3F4F;" d="M172.978,33.315c0.465-0.246-8.361-9.28-9.24-9.99c-3.766-3.042-7.976-5.511-12.404-7.457
				c-9.471-4.162-19.922-5.921-30.231-5.866c-23.398,0.123-47.007,9.897-62.605,27.555c-15.775,17.858-23.135,42.28-25.541,65.584
				c-0.209,2.019-0.374,4.042-0.494,6.069c-0.451,7.623-0.238,15.336,0.982,22.883c0.071,0.438,1.834,7.933,1.784,7.96
				c0,0-23.819,13.033-27.415,39.999c-1.698,12.739,1.222,25.41,6.978,36.785c5.599,11.064,14.837,18.642,17.732,31.166
				c3.786,16.374-2.323,32.277-11.452,45.753c-14.157,20.898-6.331,51.753-6.331,51.753c40.578-13.834,51.169-71.401,37.722-111.021
				c-3.583-10.557-10.084-19.709-13.79-30.146c-3.531-9.945-5.089-20.66-3.912-31.179c1.088-9.724,4.862-19.717,11.741-27.04
				c8.469-9.016,19.96-9.807,30.43-15.257c12.196-6.349,24.354-14.532,32.054-26.184c4.253-6.436,6.665-14.02,7.238-21.695
				c0.683-9.151,1.062-18.81,5.042-27.254c4.478-9.5,14.46-16.547,24.972-11.405c9.568,4.68,15.415,14.802,6.066,23.144
				c2.467,2.018,13.145,4.551,13.188,4.561c1.087,0.258,3.857-1.101,5.013-1.29c3.499-0.571,7.312-0.629,10.644,0.747
				c9.309,3.844,9.906,16.501,9.582,25.045c-0.393,10.35,2.854,18.478,10.485,25.484c20.078,18.431,31.086,42.567,26.047,70.282
				c-2.04,11.218-6.206,21.894-11.355,32.029c-5.595,11.012-13.519,21.727-14.021,34.649c-0.509,13.096,6.043,25.848,15.324,34.75
				c8.375,8.034,18.751,13.582,27.17,21.528c4.734,4.468,8.497,10.07,7.676,16.862c-1.151,9.522-8.706,16.748-17.963,18.566
				c-4.688,0.921-9.76,0.16-13.771-2.497c-9.766-6.471-9.596-21.291,1.784-25.976c5.601-2.306,11.373-0.045,15.89,3.512
				c-0.555-0.437-1.01-2.058-1.434-2.679c-1.445-2.116-3.424-3.845-5.664-5.078c-17.609-9.691-38.291,5.427-40.632,23.537
				c-1.815,14.044,7.356,23.753,19.86,28.666c29.796,11.708,62.019-4.791,71.573-34.94c5-15.778,6.089-33.493,1.299-49.602
				c-3.327-11.191-9.953-20.083-16.715-29.371c-8.676-11.917-11.043-23.806-7.149-38.214c10.289-38.07,9.26-52.475-8.746-82.829
				c-12.153-20.487-15.135-44.623-24.15-66.4c-7.555-18.25-22.587-40.537-45.239-37.739
				C178.304,31.407,175.405,32.031,172.978,33.315z"/>
			<path style="fill:#3A3F4F;" d="M144.456,39.57c-10.512-5.142-20.494,1.905-24.972,11.405c-3.98,8.444-4.359,18.104-5.042,27.254
				c-0.573,7.675-2.985,15.259-7.238,21.695c-7.7,11.652-19.858,19.835-32.054,26.184c-10.469,5.45-21.96,6.241-30.43,15.257
				c-6.88,7.324-10.653,17.317-11.741,27.04c-1.177,10.519,0.381,21.234,3.912,31.179c0.407,1.145,0.848,2.275,1.315,3.392
				c-3.197-9.557-4.567-19.775-3.444-29.815c1.088-9.724,4.862-19.717,11.741-27.04c8.469-9.016,19.96-9.807,30.429-15.257
				c12.196-6.349,24.354-14.532,32.054-26.184c4.253-6.436,6.665-14.02,7.238-21.695c0.683-9.151,1.062-18.81,5.042-27.254
				c4.478-9.5,14.46-16.547,24.972-11.405c3.786,1.852,6.989,4.557,8.898,7.666C154.413,46.95,150.078,42.32,144.456,39.57z"/>
			<path style="fill:#3A3F4F;" d="M25.074,298.178c9.129-13.476,15.238-29.378,11.452-45.753
				c-2.896-12.524-12.133-20.102-17.732-31.166c-5.756-11.375-8.676-24.046-6.978-36.785c3.595-26.966,27.415-39.999,27.415-39.999
				c0.05-0.027-1.713-7.522-1.784-7.96c-1.22-7.547-1.432-15.26-0.982-22.883c0.12-2.026,0.285-4.05,0.493-6.069
				C39.365,84.259,46.724,59.838,62.5,41.98c15.598-17.658,39.208-27.432,62.605-27.555c10.309-0.054,20.76,1.704,30.231,5.866
				c4.428,1.946,8.638,4.415,12.404,7.457c0.421,0.34,2.668,2.593,4.842,4.874c-1.702-2.172-8.102-8.698-8.843-9.297
				c-3.766-3.042-7.976-5.511-12.404-7.457c-9.471-4.162-19.922-5.921-30.231-5.866c-23.398,0.123-47.007,9.897-62.605,27.555
				c-15.775,17.858-23.135,42.28-25.541,65.584c-0.209,2.019-0.374,4.042-0.494,6.069c-0.451,7.622-0.238,15.336,0.982,22.883
				c0.071,0.438,1.834,7.933,1.784,7.96c0,0-23.819,13.033-27.415,39.999c-1.698,12.739,1.222,25.41,6.978,36.785
				c5.599,11.064,14.837,18.642,17.732,31.166c3.786,16.374-2.323,32.277-11.452,45.753c-14.157,20.898-6.331,51.753-6.331,51.753
				c0.998-0.34,1.978-0.708,2.941-1.101C16.162,334.585,14.591,313.654,25.074,298.178z"/>
			<path style="fill:#3A3F4F;" d="M205.888,263.401c0.502-12.923,8.427-23.638,14.021-34.649
				c5.149-10.135,9.316-20.811,11.355-32.029c4.637-25.503-4.314-47.975-21.417-65.761c14.465,17.031,21.676,37.905,17.416,61.338
				c-2.04,11.218-6.206,21.894-11.355,32.029c-5.595,11.012-13.519,21.727-14.021,34.649c-0.498,12.82,5.773,25.31,14.744,34.182
				C209.864,284.79,205.468,274.214,205.888,263.401z"/>
		</g>
	</g>
</g>
</svg>
